<svg id="svg" version="1.1" xmlns="http://www.w3.org/2000/svg" xmlns:xlink="http://www.w3.org/1999/xlink" width="400" height="400" viewBox="0, 0, 400,400"><g id="svgg"><path id="path0" d="M224.000 36.794 C 224.000 37.010,224.984 38.558,226.186 40.233 C 230.183 45.804,229.229 47.189,222.742 45.234 C 195.938 37.157,166.450 38.720,134.800 49.894 C 125.171 53.293,125.010 53.446,129.200 55.180 C 136.789 58.320,138.953 60.509,135.197 61.245 C 127.284 62.797,126.883 62.914,119.200 65.888 C 97.705 74.208,76.926 88.611,65.947 102.800 C 59.164 111.565,53.092 122.584,49.457 132.721 C 46.827 140.059,46.990 140.574,50.806 136.985 C 68.589 120.266,78.535 115.596,96.340 115.603 C 109.743 115.608,113.969 117.498,121.438 126.827 C 128.664 135.852,133.483 138.698,142.200 139.087 C 159.751 139.871,173.465 124.159,167.510 110.090 C 161.433 95.730,149.452 89.874,126.462 90.027 C 121.236 90.061,117.768 89.928,117.524 89.684 C 116.129 88.289,119.523 86.465,128.000 84.054 C 145.826 78.984,163.222 79.832,175.922 86.390 C 186.375 91.788,188.961 94.238,189.304 99.071 C 190.697 118.712,213.677 129.274,229.905 117.734 C 248.069 104.817,230.656 73.780,198.497 61.753 C 191.979 59.316,192.450 57.040,199.324 57.762 C 221.748 60.118,240.298 67.796,259.414 82.637 C 263.697 85.962,263.581 85.625,263.513 94.600 C 263.391 110.627,266.391 119.068,274.503 125.523 C 289.239 137.248,311.090 132.889,317.470 116.951 C 319.009 113.106,319.124 102.146,317.680 97.000 C 313.026 80.420,295.662 62.462,273.800 51.618 C 265.121 47.313,260.007 45.463,246.000 41.559 C 240.647 40.067,237.307 39.198,229.111 37.166 C 225.695 36.319,224.000 36.196,224.000 36.794 M217.949 90.174 C 219.056 90.735,220.453 91.811,221.055 92.565 C 229.084 102.627,215.759 115.315,206.378 106.541 C 197.884 98.596,207.560 84.910,217.949 90.174 M297.402 94.801 C 301.710 96.648,304.402 101.937,303.236 106.267 C 300.974 114.668,290.068 117.051,285.120 110.226 C 278.859 101.588,287.607 90.602,297.402 94.801 M146.169 104.561 C 155.262 108.360,154.093 121.990,144.500 124.014 C 134.715 126.078,128.151 113.910,135.231 106.831 C 137.886 104.175,142.804 103.155,146.169 104.561 M187.600 138.272 C 176.364 140.107,166.208 144.175,161.483 148.732 C 159.004 151.124,159.393 151.862,164.067 153.631 C 181.797 160.341,183.054 170.870,167.111 179.141 C 165.563 179.944,164.320 180.780,164.348 181.000 C 164.422 181.568,225.283 181.551,225.472 180.983 C 225.549 180.753,224.754 180.153,223.706 179.650 C 206.933 171.594,207.853 160.194,225.800 153.699 C 230.862 151.867,231.100 150.625,226.990 147.510 C 218.073 140.752,199.331 136.357,187.600 138.272 M79.448 139.441 C 75.194 140.209,70.248 142.573,67.645 145.081 L 65.591 147.061 65.696 164.215 L 65.800 181.370 66.800 181.846 C 67.350 182.107,68.880 182.726,70.200 183.221 C 82.284 187.748,91.210 202.180,95.558 224.220 C 101.419 253.936,126.569 282.793,155.600 293.114 C 179.209 301.508,208.920 299.925,230.200 289.140 C 241.592 283.366,248.116 277.606,250.874 270.887 C 255.616 259.336,256.980 254.965,270.179 209.000 C 271.190 205.480,272.268 201.790,272.575 200.800 C 272.883 199.810,273.535 197.650,274.025 196.000 C 281.653 170.322,313.159 160.505,334.222 177.243 C 357.026 195.365,351.433 231.606,324.175 242.340 C 317.666 244.903,303.191 246.319,288.600 245.819 C 278.472 245.473,279.395 244.908,277.144 252.827 C 271.906 271.259,271.881 271.396,273.613 271.743 C 275.564 272.133,307.818 272.034,314.200 271.618 C 337.586 270.094,358.570 255.018,367.115 233.600 C 369.349 228.000,369.663 227.027,370.599 222.812 C 381.356 174.364,337.754 132.492,291.800 147.139 C 271.776 153.521,254.701 172.172,250.363 192.400 C 249.612 195.898,254.426 195.600,198.739 195.600 L 149.256 195.600 147.827 193.900 C 147.042 192.965,145.201 190.490,143.736 188.400 C 129.720 168.397,113.765 151.123,102.688 143.960 C 95.824 139.521,87.725 137.946,79.448 139.441 M92.554 154.017 C 99.412 156.583,101.278 165.374,96.073 170.599 C 90.430 176.265,81.482 174.274,79.000 166.800 C 76.237 158.482,84.262 150.915,92.554 154.017 M51.722 156.900 C 43.296 164.974,39.895 171.918,39.347 182.169 C 39.020 188.294,39.101 188.345,43.043 184.484 C 46.738 180.864,48.734 179.607,52.700 178.403 L 55.600 177.522 55.600 165.961 C 55.600 152.529,55.799 152.993,51.722 156.900 M303.163 187.187 C 278.147 195.419,283.600 232.400,309.830 232.400 C 330.044 232.400,340.515 208.717,326.966 193.646 C 321.436 187.496,310.906 184.638,303.163 187.187 M39.428 213.431 C 38.317 217.857,41.181 245.454,43.866 256.200 C 49.083 277.078,56.161 289.732,72.627 307.617 C 84.323 320.320,89.604 323.945,100.616 326.829 C 109.117 329.056,120.008 326.927,125.362 321.993 C 132.171 315.716,132.743 301.318,126.461 294.330 C 119.881 287.010,102.707 286.839,93.644 294.003 C 92.533 294.881,91.213 295.597,90.712 295.593 C 89.535 295.583,83.242 289.506,75.676 281.073 C 68.578 273.161,68.346 271.986,74.149 273.344 C 85.840 276.078,95.573 268.896,95.122 257.868 C 94.662 246.648,81.739 240.022,70.374 245.178 C 67.318 246.564,65.883 246.311,61.236 243.563 C 51.842 238.009,45.732 229.838,41.631 217.342 C 39.945 212.207,39.800 211.949,39.428 213.431 M334.418 289.166 C 323.602 297.123,313.812 301.011,302.000 302.040 C 295.025 302.648,293.800 302.423,290.504 299.923 C 278.157 290.561,263.314 295.639,261.094 309.983 C 258.619 325.971,273.969 336.102,290.800 329.589 C 309.713 322.270,324.886 310.212,334.285 295.031 C 340.233 285.425,340.245 284.879,334.418 289.166 M153.740 308.612 C 153.460 309.343,154.421 310.877,159.749 318.200 C 166.547 327.544,167.610 331.240,164.990 336.426 C 162.523 341.310,156.050 347.567,147.752 353.089 C 145.908 354.316,144.400 355.462,144.400 355.636 C 144.400 356.145,149.165 356.557,167.200 357.610 C 171.050 357.835,176.810 358.192,180.000 358.403 C 187.347 358.890,200.482 358.894,208.000 358.411 C 211.190 358.206,217.310 357.840,221.600 357.597 C 241.735 356.455,245.465 356.029,243.851 355.053 C 235.614 350.071,226.237 341.639,224.086 337.279 C 220.993 331.008,221.799 327.934,229.193 317.800 C 236.473 307.820,236.568 307.246,230.571 309.428 C 205.295 318.626,185.151 318.892,160.800 310.349 C 153.971 307.954,153.991 307.959,153.740 308.612 " stroke="none" fill="#e9e9e9" fill-rule="evenodd"></path><path id="path1" d="M177.200 0.481 C 176.430 0.702,174.000 1.060,171.800 1.276 C 169.600 1.492,166.990 1.905,166.000 2.193 C 165.010 2.481,162.940 2.840,161.400 2.991 C 159.860 3.142,158.240 3.494,157.800 3.773 C 157.360 4.052,155.830 4.409,154.400 4.566 C 152.970 4.724,151.440 5.084,151.000 5.368 C 150.560 5.651,149.302 6.016,148.205 6.180 C 147.108 6.344,145.758 6.705,145.205 6.983 C 144.652 7.261,143.390 7.613,142.400 7.765 C 141.410 7.916,140.240 8.274,139.800 8.560 C 139.360 8.846,138.280 9.210,137.400 9.369 C 136.520 9.529,135.421 9.903,134.958 10.200 C 134.496 10.498,133.416 10.870,132.558 11.028 C 131.701 11.185,130.645 11.558,130.211 11.857 C 129.777 12.156,129.057 12.401,128.611 12.401 C 128.165 12.402,127.245 12.741,126.567 13.155 C 125.888 13.569,124.776 14.030,124.094 14.179 C 123.413 14.329,122.641 14.710,122.379 15.026 C 122.117 15.342,121.629 15.600,121.295 15.600 C 120.682 15.600,119.618 16.057,113.800 18.818 C 112.040 19.653,110.330 20.441,110.000 20.570 C 109.670 20.698,107.960 21.611,106.200 22.599 C 104.440 23.587,102.460 24.679,101.800 25.025 C 101.140 25.372,99.943 26.048,99.139 26.527 C 98.336 27.007,96.491 28.084,95.039 28.920 C 93.588 29.755,92.400 30.610,92.400 30.820 C 92.400 31.029,92.190 31.200,91.934 31.200 C 91.379 31.200,83.863 36.201,83.179 37.026 C 82.917 37.342,82.525 37.600,82.309 37.600 C 81.948 37.600,80.277 38.813,78.800 40.146 C 78.470 40.444,76.580 41.924,74.600 43.435 C 72.620 44.946,70.804 46.366,70.565 46.591 C 70.326 46.816,68.624 48.350,66.782 50.000 C 62.482 53.853,53.853 62.482,50.000 66.782 C 48.350 68.624,46.816 70.326,46.591 70.565 C 46.366 70.804,44.946 72.620,43.435 74.600 C 41.924 76.580,40.444 78.470,40.146 78.800 C 38.813 80.277,37.600 81.948,37.600 82.309 C 37.600 82.525,37.342 82.917,37.026 83.179 C 36.201 83.863,31.200 91.379,31.200 91.934 C 31.200 92.190,31.029 92.400,30.820 92.400 C 30.610 92.400,29.755 93.588,28.920 95.039 C 28.084 96.491,27.007 98.336,26.527 99.139 C 26.048 99.943,25.372 101.140,25.025 101.800 C 24.679 102.460,23.587 104.440,22.599 106.200 C 21.611 107.960,20.692 109.670,20.555 110.000 C 20.088 111.132,17.130 117.400,16.365 118.879 C 15.944 119.693,15.600 120.706,15.600 121.130 C 15.600 121.555,15.342 122.117,15.026 122.379 C 14.710 122.641,14.329 123.413,14.179 124.094 C 14.030 124.776,13.569 125.888,13.155 126.567 C 12.741 127.245,12.402 128.165,12.401 128.611 C 12.401 129.057,12.156 129.777,11.857 130.211 C 11.558 130.645,11.185 131.701,11.028 132.558 C 10.870 133.416,10.498 134.496,10.200 134.958 C 9.903 135.421,9.533 136.520,9.379 137.400 C 9.225 138.280,8.867 139.270,8.585 139.600 C 8.302 139.930,7.939 141.100,7.777 142.200 C 7.615 143.300,7.256 144.560,6.979 145.000 C 6.703 145.440,6.347 146.786,6.188 147.990 C 6.030 149.195,5.667 150.545,5.382 150.990 C 5.097 151.436,4.737 152.880,4.581 154.200 C 4.426 155.520,4.066 157.058,3.781 157.618 C 3.497 158.177,3.137 159.977,2.981 161.618 C 2.824 163.258,2.524 164.932,2.314 165.338 C 2.103 165.744,1.765 167.904,1.561 170.138 C 1.358 172.372,0.928 175.280,0.606 176.600 C -0.111 179.544,-0.237 219.753,0.462 222.800 C 0.689 223.790,1.044 226.220,1.252 228.200 C 1.459 230.180,1.813 232.520,2.038 233.400 C 2.264 234.280,2.684 236.663,2.972 238.696 C 3.260 240.729,3.677 242.619,3.898 242.896 C 4.120 243.173,4.432 244.480,4.592 245.800 C 4.752 247.119,5.116 248.652,5.403 249.205 C 5.689 249.758,6.050 251.108,6.205 252.205 C 6.360 253.302,6.715 254.564,6.993 255.010 C 7.272 255.455,7.628 256.751,7.785 257.890 C 7.941 259.028,8.304 260.155,8.591 260.393 C 8.878 260.631,9.239 261.675,9.392 262.713 C 9.546 263.751,9.902 264.870,10.185 265.200 C 10.467 265.530,10.826 266.511,10.982 267.380 C 11.138 268.248,11.521 269.323,11.833 269.769 C 12.145 270.214,12.400 270.923,12.400 271.345 C 12.400 272.097,13.318 274.332,14.837 277.279 C 15.257 278.093,15.600 278.981,15.600 279.252 C 15.600 279.524,16.649 281.918,17.930 284.573 C 19.212 287.228,20.476 289.850,20.740 290.400 C 21.004 290.950,21.927 292.660,22.792 294.200 C 23.656 295.740,24.648 297.540,24.996 298.200 C 25.344 298.860,26.070 300.120,26.611 301.000 C 27.151 301.880,27.820 303.051,28.097 303.602 C 28.949 305.299,35.449 315.147,36.676 316.600 C 36.862 316.820,37.687 318.022,38.510 319.272 C 39.332 320.522,40.544 322.083,41.203 322.741 C 41.861 323.400,42.400 324.123,42.400 324.349 C 42.400 324.575,42.631 324.904,42.913 325.080 C 43.196 325.256,43.969 326.151,44.632 327.068 C 48.640 332.615,68.354 352.321,73.211 355.635 C 74.045 356.205,75.000 356.925,75.332 357.235 C 75.664 357.546,76.405 358.160,76.978 358.600 C 77.551 359.040,78.241 359.586,78.510 359.814 C 78.780 360.042,79.900 360.852,81.000 361.614 C 82.100 362.376,83.090 363.094,83.200 363.209 C 83.310 363.324,83.922 363.774,84.560 364.209 C 85.197 364.644,86.114 365.270,86.597 365.600 C 88.558 366.940,91.140 368.628,93.600 370.178 C 97.530 372.654,97.724 372.770,98.800 373.280 C 99.350 373.541,100.070 373.973,100.400 374.239 C 100.730 374.506,102.080 375.287,103.400 375.975 C 104.720 376.664,106.115 377.401,106.500 377.613 C 106.885 377.826,107.515 378.174,107.900 378.386 C 108.705 378.831,112.920 380.878,114.400 381.544 C 114.950 381.792,115.670 382.155,116.000 382.352 C 116.330 382.548,117.590 383.108,118.800 383.596 C 121.001 384.484,122.588 385.176,126.044 386.757 C 127.058 387.220,128.184 387.600,128.545 387.600 C 128.907 387.600,129.875 387.960,130.696 388.400 C 131.516 388.840,132.506 389.200,132.896 389.200 C 133.285 389.200,134.275 389.560,135.096 390.000 C 135.916 390.440,137.046 390.800,137.605 390.800 C 138.164 390.800,139.023 391.081,139.514 391.425 C 140.004 391.768,141.259 392.203,142.303 392.391 C 143.346 392.579,144.920 393.010,145.800 393.349 C 146.680 393.688,148.053 393.973,148.851 393.982 C 149.649 393.992,150.512 394.253,150.769 394.563 C 151.026 394.872,152.353 395.245,153.718 395.392 C 155.083 395.538,156.790 395.925,157.512 396.253 C 158.233 396.580,160.123 396.952,161.712 397.079 C 163.300 397.205,164.818 397.480,165.084 397.690 C 165.350 397.900,167.510 398.248,169.884 398.465 C 172.258 398.681,174.920 399.070,175.800 399.329 C 178.167 400.026,223.762 399.999,224.460 399.300 C 224.735 399.025,225.869 398.794,226.980 398.788 C 229.735 398.771,234.808 398.087,235.354 397.659 C 235.599 397.466,237.130 397.191,238.756 397.046 C 240.383 396.902,242.273 396.534,242.956 396.228 C 243.640 395.923,245.190 395.555,246.400 395.412 C 247.610 395.269,248.960 394.921,249.400 394.637 C 249.840 394.354,251.174 393.995,252.364 393.839 C 253.555 393.683,254.900 393.295,255.353 392.978 C 255.807 392.660,256.816 392.400,257.595 392.400 C 258.374 392.400,259.684 392.040,260.504 391.600 C 261.325 391.160,262.405 390.800,262.904 390.800 C 263.404 390.800,264.484 390.440,265.304 390.000 C 266.125 389.560,267.115 389.200,267.504 389.200 C 267.894 389.200,268.884 388.840,269.704 388.400 C 270.525 387.960,271.513 387.599,271.899 387.599 C 272.284 387.598,273.189 387.238,273.910 386.799 C 274.630 386.359,275.494 386.000,275.830 386.000 C 276.167 386.000,277.107 385.657,277.921 385.237 C 278.734 384.818,280.300 384.091,281.400 383.622 C 282.500 383.153,284.066 382.416,284.879 381.985 C 285.693 381.553,286.616 381.200,286.930 381.200 C 287.245 381.200,287.717 380.942,287.979 380.626 C 288.241 380.310,288.985 379.935,289.632 379.793 C 290.279 379.651,291.031 379.314,291.304 379.045 C 291.577 378.776,292.970 377.968,294.400 377.250 C 295.830 376.531,297.720 375.518,298.600 374.999 C 299.480 374.480,300.740 373.763,301.400 373.406 C 303.988 372.007,305.115 371.319,308.134 369.298 C 309.857 368.144,311.404 367.200,311.572 367.200 C 311.739 367.200,312.202 366.840,312.600 366.400 C 312.998 365.960,313.496 365.600,313.706 365.600 C 313.917 365.600,314.949 364.880,316.000 364.000 C 317.051 363.120,318.035 362.400,318.187 362.400 C 318.339 362.400,319.754 361.352,321.331 360.072 C 322.909 358.791,325.197 357.014,326.416 356.122 C 327.634 355.229,329.365 353.802,330.262 352.950 C 331.159 352.097,333.402 350.111,335.246 348.537 C 338.932 345.390,346.682 337.555,349.808 333.817 C 350.903 332.507,352.430 330.774,353.200 329.967 C 353.970 329.159,355.276 327.622,356.102 326.549 C 356.928 325.477,358.643 323.250,359.914 321.600 C 361.185 319.950,362.725 317.880,363.338 317.000 C 363.950 316.120,365.058 314.590,365.799 313.600 C 366.540 312.610,367.159 311.597,367.173 311.349 C 367.188 311.101,367.469 310.675,367.797 310.402 C 368.126 310.129,368.981 308.927,369.697 307.730 C 370.414 306.533,371.360 304.951,371.800 304.216 C 373.704 301.031,376.277 296.522,376.717 295.600 C 377.224 294.537,377.756 293.628,378.834 291.984 C 379.200 291.426,379.626 290.391,379.782 289.684 C 379.937 288.978,380.222 288.400,380.416 288.400 C 380.610 288.400,380.963 287.680,381.200 286.800 C 381.437 285.920,381.800 285.200,382.008 285.200 C 382.215 285.200,382.504 284.705,382.651 284.100 C 382.797 283.495,383.234 282.370,383.621 281.600 C 385.125 278.610,386.000 276.483,386.000 275.819 C 386.000 275.438,386.360 274.669,386.800 274.109 C 387.240 273.550,387.600 272.756,387.600 272.345 C 387.600 271.933,387.960 270.925,388.400 270.104 C 388.840 269.284,389.200 268.294,389.200 267.904 C 389.200 267.515,389.560 266.525,390.000 265.704 C 390.440 264.884,390.800 263.804,390.800 263.304 C 390.800 262.805,391.160 261.725,391.600 260.904 C 392.040 260.084,392.400 258.905,392.400 258.286 C 392.400 257.667,392.673 256.632,393.007 255.987 C 393.340 255.342,393.729 253.956,393.870 252.907 C 394.011 251.858,394.367 250.628,394.662 250.172 C 394.956 249.717,395.316 248.187,395.461 246.772 C 395.607 245.358,395.962 243.834,396.252 243.387 C 396.541 242.940,396.898 241.230,397.044 239.587 C 397.190 237.944,397.480 236.383,397.689 236.118 C 397.897 235.853,398.249 233.783,398.470 231.518 C 398.691 229.253,399.132 226.491,399.448 225.380 C 400.190 222.777,400.100 175.298,399.352 174.361 C 399.105 174.053,398.776 172.000,398.621 169.800 C 398.466 167.600,398.100 165.260,397.807 164.600 C 397.514 163.940,397.163 162.056,397.027 160.413 C 396.890 158.770,396.541 157.060,396.252 156.613 C 395.962 156.166,395.600 154.724,395.448 153.408 C 395.296 152.092,394.935 150.652,394.647 150.208 C 394.359 149.764,393.995 148.427,393.839 147.237 C 393.683 146.048,393.296 144.572,392.978 143.957 C 392.660 143.343,392.400 142.333,392.400 141.714 C 392.400 141.095,392.040 139.916,391.600 139.096 C 391.160 138.275,390.800 137.195,390.800 136.696 C 390.800 136.196,390.440 135.116,390.000 134.296 C 389.560 133.475,389.200 132.485,389.200 132.096 C 389.200 131.706,388.840 130.716,388.400 129.896 C 387.960 129.075,387.600 128.067,387.600 127.655 C 387.600 127.244,387.240 126.450,386.800 125.891 C 386.360 125.331,386.000 124.592,386.000 124.248 C 386.000 123.584,385.245 121.797,382.767 116.600 C 381.928 114.840,381.130 112.995,380.994 112.500 C 380.858 112.005,380.593 111.600,380.405 111.600 C 380.217 111.600,379.948 111.075,379.807 110.433 C 379.666 109.791,379.202 108.863,378.775 108.372 C 378.349 107.880,378.000 107.156,378.000 106.762 C 378.000 106.369,377.819 105.935,377.597 105.798 C 377.375 105.661,376.872 104.886,376.477 104.075 C 376.083 103.264,375.049 101.380,374.180 99.890 C 373.311 98.399,372.326 96.689,371.990 96.090 C 371.655 95.490,370.486 93.650,369.393 92.000 C 368.300 90.350,367.224 88.704,367.003 88.342 C 365.873 86.494,363.501 83.216,362.986 82.788 C 362.664 82.521,362.400 82.144,362.400 81.950 C 362.400 81.476,355.273 72.382,352.528 69.355 C 351.908 68.671,350.320 66.886,349.000 65.389 C 345.604 61.540,339.156 55.082,335.426 51.796 C 333.681 50.258,331.831 48.598,331.315 48.106 C 330.799 47.615,328.897 46.033,327.088 44.592 C 325.280 43.150,323.103 41.392,322.252 40.685 C 320.414 39.159,315.864 35.855,314.269 34.887 C 313.647 34.509,312.219 33.525,311.096 32.700 C 309.974 31.875,308.906 31.200,308.724 31.200 C 308.541 31.200,307.495 30.570,306.400 29.800 C 305.305 29.030,304.239 28.400,304.033 28.400 C 303.826 28.400,303.410 28.153,303.109 27.852 C 302.808 27.550,301.958 26.965,301.221 26.552 C 296.101 23.679,294.114 22.621,290.400 20.792 C 288.090 19.655,285.930 18.560,285.600 18.360 C 285.270 18.159,284.730 17.883,284.400 17.747 C 284.070 17.610,282.866 17.071,281.725 16.549 C 280.583 16.027,279.503 15.600,279.325 15.601 C 279.146 15.602,278.280 15.259,277.400 14.839 C 273.578 13.017,272.070 12.400,271.442 12.400 C 271.073 12.400,270.373 12.148,269.886 11.839 C 269.399 11.531,268.370 11.153,267.600 11.000 C 266.830 10.847,265.821 10.482,265.358 10.190 C 264.896 9.897,263.816 9.528,262.958 9.369 C 262.101 9.210,261.028 8.838,260.574 8.542 C 260.120 8.247,258.860 7.885,257.774 7.739 C 256.688 7.593,255.440 7.246,255.000 6.968 C 254.560 6.690,253.300 6.332,252.200 6.172 C 251.100 6.013,249.840 5.656,249.400 5.379 C 248.960 5.102,247.458 4.749,246.061 4.594 C 244.665 4.439,243.065 4.075,242.506 3.785 C 241.948 3.495,240.120 3.133,238.445 2.981 C 236.770 2.829,235.181 2.528,234.913 2.314 C 234.645 2.099,232.309 1.745,229.721 1.527 C 227.133 1.308,224.652 0.920,224.208 0.665 C 223.149 0.056,179.277 -0.116,177.200 0.481 M233.800 36.602 C 239.520 38.032,245.010 39.455,246.000 39.764 C 246.990 40.073,249.569 40.811,251.732 41.406 C 255.463 42.431,261.323 44.405,266.600 46.415 C 273.944 49.213,285.356 55.831,293.399 61.955 C 319.521 81.848,328.584 110.738,313.431 125.815 C 299.566 139.610,273.975 134.896,265.584 117.000 C 262.769 110.998,262.304 108.310,262.100 96.885 L 261.920 86.770 259.260 84.648 C 242.082 70.949,220.029 61.257,202.925 59.888 C 199.427 59.608,199.562 60.191,203.429 62.069 C 239.892 79.781,251.175 111.693,224.772 122.438 C 207.997 129.265,188.877 116.982,187.317 98.376 C 187.034 95.005,187.321 95.386,182.800 92.368 C 166.894 81.750,148.511 79.570,127.800 85.847 C 120.834 87.958,121.274 88.259,131.700 88.515 C 148.799 88.934,158.248 93.003,165.439 103.043 C 173.182 113.854,172.402 124.263,163.199 132.946 C 150.322 145.093,132.431 143.529,121.294 129.282 C 113.046 118.731,110.353 117.451,96.400 117.452 C 86.883 117.453,84.587 117.720,79.294 119.446 C 71.381 122.025,61.508 128.968,50.761 139.514 C 43.370 146.766,42.983 144.514,48.988 129.200 C 58.136 105.872,70.168 91.999,95.200 75.919 C 105.246 69.465,122.480 61.935,130.669 60.421 C 134.613 59.692,134.410 59.177,129.386 57.175 C 122.252 54.331,121.570 52.976,126.362 51.166 C 133.947 48.301,141.934 45.535,144.720 44.810 C 145.534 44.597,147.910 43.967,150.000 43.408 C 172.140 37.490,197.407 36.892,216.600 41.830 C 226.545 44.390,226.517 44.385,226.117 43.300 C 225.820 42.495,224.398 40.496,222.509 38.228 C 220.627 35.968,220.754 34.136,222.800 34.033 C 223.130 34.016,228.080 35.173,233.800 36.602 M209.797 91.521 C 201.479 95.431,204.289 107.600,213.509 107.600 C 224.090 107.600,224.510 91.664,213.948 90.941 C 212.012 90.809,211.015 90.948,209.797 91.521 M290.610 95.869 C 281.600 98.423,283.790 112.400,293.200 112.400 C 303.922 112.400,304.574 96.333,293.875 95.775 C 292.514 95.704,291.045 95.746,290.610 95.869 M139.000 106.262 C 131.675 110.107,132.332 119.772,140.086 122.217 C 148.187 124.770,154.304 114.570,148.454 108.263 C 146.104 105.730,141.764 104.811,139.000 106.262 M201.200 136.624 C 217.414 138.493,233.405 146.650,231.510 152.085 C 231.164 153.079,227.721 155.200,226.453 155.200 C 226.235 155.200,224.344 155.995,222.252 156.966 C 211.476 161.967,210.567 169.744,220.058 175.743 C 222.231 177.117,227.296 179.600,227.925 179.600 C 228.971 179.600,230.958 181.928,230.442 182.549 C 229.892 183.212,161.526 183.607,159.833 182.957 C 157.896 182.214,159.123 181.127,165.400 178.024 C 180.456 170.583,180.296 161.704,165.000 155.836 C 158.827 153.468,158.000 152.883,158.000 150.885 C 158.000 149.519,161.609 146.119,165.400 143.914 C 175.787 137.873,188.890 135.204,201.200 136.624 M93.097 137.996 C 106.605 141.234,125.023 158.916,146.357 189.123 C 148.058 191.531,149.681 193.403,150.260 193.623 C 151.893 194.244,246.882 194.121,247.735 193.497 C 248.120 193.215,248.955 191.149,249.634 188.797 C 261.425 147.962,309.096 129.744,344.295 152.621 C 380.670 176.263,384.194 230.369,351.178 258.321 C 335.999 271.171,326.802 273.600,293.314 273.600 C 266.842 273.600,269.329 274.618,272.032 264.882 C 272.686 262.527,273.560 259.340,273.975 257.800 C 278.140 242.346,276.154 244.000,290.542 244.000 C 310.066 244.000,319.023 242.969,325.505 239.974 C 356.702 225.561,352.472 180.062,319.152 171.636 C 299.203 166.591,280.774 178.243,274.606 199.800 C 273.788 202.660,272.776 206.170,272.359 207.600 C 271.941 209.030,271.240 211.460,270.800 213.000 C 270.360 214.540,269.661 216.970,269.246 218.400 C 268.499 220.970,266.786 226.979,265.142 232.800 C 264.675 234.450,263.958 236.836,263.547 238.102 C 263.136 239.367,262.800 240.627,262.800 240.902 C 262.800 241.349,261.101 246.876,258.588 254.600 C 257.673 257.414,253.464 269.042,252.145 272.400 C 249.371 279.464,237.765 288.385,224.824 293.402 C 183.213 309.534,138.006 297.187,112.045 262.600 C 105.550 253.947,97.827 239.832,96.287 233.800 C 96.175 233.360,95.603 231.290,95.018 229.200 C 94.432 227.110,93.713 224.050,93.420 222.400 C 89.837 202.223,79.248 186.946,66.547 183.626 C 63.687 182.879,63.813 183.679,63.679 165.439 C 63.534 145.896,63.410 146.894,66.349 144.019 C 72.283 138.212,83.481 135.691,93.097 137.996 M56.786 152.774 C 57.439 153.994,57.342 177.653,56.680 178.559 C 56.387 178.959,55.032 179.531,53.581 179.866 C 49.385 180.835,44.803 184.132,41.301 188.700 C 35.304 196.525,36.633 174.763,42.740 165.144 C 47.323 157.926,55.628 150.611,56.786 152.774 M86.600 155.152 C 82.962 156.088,80.004 159.876,80.004 163.600 C 80.004 171.086,89.594 174.916,94.830 169.522 C 100.849 163.320,94.942 153.007,86.600 155.152 M315.691 185.223 C 335.709 190.334,341.455 214.867,325.796 228.369 C 310.630 241.447,286.375 231.039,285.319 211.000 C 284.423 193.979,299.584 181.111,315.691 185.223 M40.098 206.955 C 40.404 207.261,41.163 209.466,41.786 211.855 C 46.016 228.083,53.849 238.812,65.083 243.764 L 66.766 244.506 70.695 243.253 C 86.652 238.163,100.762 249.184,96.393 263.327 C 94.016 271.026,87.533 275.400,78.500 275.400 C 75.585 275.400,73.200 275.504,73.200 275.630 C 73.200 276.113,85.259 289.109,87.740 291.300 C 90.833 294.031,90.613 294.003,93.505 292.047 C 102.202 286.164,114.340 285.325,123.546 289.973 C 135.604 296.060,135.662 318.354,123.638 325.333 C 109.374 333.612,91.843 329.511,76.800 314.376 C 50.544 287.959,40.942 266.770,38.200 229.200 C 36.897 211.343,37.493 204.351,40.098 206.955 M342.180 282.736 C 343.089 285.600,331.686 303.243,324.218 310.528 C 315.439 319.092,298.761 329.115,288.217 332.164 C 272.699 336.651,259.200 327.736,259.200 313.000 C 259.200 295.476,277.308 287.450,291.600 298.637 C 294.919 301.235,302.521 301.205,312.301 298.556 C 315.686 297.640,317.141 297.110,321.200 295.316 C 325.593 293.374,333.791 287.894,338.321 283.870 C 340.549 281.891,341.795 281.525,342.180 282.736 M154.313 306.233 C 158.134 307.860,169.982 311.682,172.800 312.196 C 173.570 312.337,175.370 312.700,176.800 313.003 C 191.131 316.038,206.441 315.314,220.600 310.931 C 225.016 309.564,232.259 307.067,233.214 306.583 C 240.277 302.999,239.049 307.139,228.936 321.000 C 223.931 327.860,223.083 331.412,225.338 336.081 C 227.600 340.764,235.686 348.030,244.800 353.568 C 247.263 355.065,247.585 355.423,247.594 356.673 C 247.602 357.832,247.263 357.898,239.800 358.191 C 236.280 358.329,230.070 358.695,226.000 359.004 C 221.930 359.313,213.740 359.761,207.800 359.999 C 201.860 360.237,196.668 360.503,196.263 360.589 C 195.254 360.802,172.820 359.741,163.000 359.015 C 158.600 358.690,151.987 358.305,148.305 358.159 C 140.065 357.832,138.656 356.779,142.932 354.141 C 157.409 345.211,164.213 337.868,164.190 331.200 C 164.177 327.576,163.809 326.744,159.743 321.140 C 149.887 307.557,148.504 303.760,154.313 306.233 " stroke="none" fill="#040404" fill-rule="evenodd"></path><path id="path2" d="M222.800 36.013 C 222.800 36.460,223.768 38.125,224.951 39.713 C 227.887 43.654,228.222 44.349,227.524 45.047 C 226.933 45.638,227.196 45.686,219.200 43.527 C 195.706 37.183,166.645 38.542,140.600 47.201 C 124.428 52.578,123.018 53.438,127.479 55.214 C 136.407 58.768,137.883 60.318,133.000 61.008 C 117.566 63.187,86.333 80.316,72.842 94.000 C 62.345 104.648,54.276 117.592,48.819 132.538 C 45.248 142.320,45.482 142.895,50.940 137.749 C 68.728 120.977,78.822 116.227,96.600 116.264 C 109.747 116.290,114.175 118.333,121.168 127.598 C 131.678 141.523,147.696 144.054,160.662 133.838 C 171.633 125.195,172.563 113.615,163.229 101.869 C 156.303 93.153,146.699 89.579,129.600 89.353 C 124.870 89.291,120.505 89.231,119.900 89.220 C 117.028 89.168,119.374 87.538,125.000 85.676 C 144.603 79.189,163.409 80.025,177.600 88.016 C 186.865 93.234,188.155 94.532,188.514 99.000 C 190.011 117.641,210.588 128.901,227.202 120.171 C 249.557 108.424,235.809 77.578,201.400 62.282 C 193.341 58.699,193.778 57.891,203.204 58.939 C 221.932 61.021,241.035 69.293,258.800 83.012 C 263.205 86.414,262.960 85.727,262.846 94.352 C 262.527 118.320,272.832 131.959,291.821 132.703 C 317.821 133.721,328.181 108.016,311.844 83.024 C 298.863 63.165,275.798 48.471,245.400 40.694 C 244.960 40.581,242.620 39.943,240.200 39.276 C 235.626 38.016,223.878 35.200,223.193 35.200 C 222.977 35.200,222.800 35.566,222.800 36.013 M229.111 37.166 C 247.609 41.752,257.885 44.760,265.400 47.787 C 291.116 58.146,312.396 78.178,317.680 97.000 C 319.124 102.146,319.009 113.106,317.470 116.951 C 311.090 132.889,289.239 137.248,274.503 125.523 C 266.391 119.068,263.391 110.627,263.513 94.600 C 263.581 85.625,263.697 85.962,259.414 82.637 C 240.298 67.796,221.748 60.118,199.324 57.762 C 192.450 57.040,191.979 59.316,198.497 61.753 C 230.656 73.780,248.069 104.817,229.905 117.734 C 213.677 129.274,190.697 118.712,189.304 99.071 C 188.961 94.238,186.375 91.788,175.922 86.390 C 163.222 79.832,145.826 78.984,128.000 84.054 C 119.523 86.465,116.129 88.289,117.524 89.684 C 117.768 89.928,121.236 90.061,126.462 90.027 C 149.452 89.874,161.433 95.730,167.510 110.090 C 173.465 124.159,159.751 139.871,142.200 139.087 C 133.483 138.698,128.664 135.852,121.438 126.827 C 113.969 117.498,109.743 115.608,96.340 115.603 C 78.535 115.596,68.589 120.266,50.806 136.985 C 46.990 140.574,46.827 140.059,49.457 132.721 C 61.046 100.400,86.615 77.147,125.600 63.476 C 127.167 62.926,130.088 62.247,135.197 61.245 C 138.953 60.509,136.789 58.320,129.200 55.180 C 125.010 53.446,125.171 53.293,134.800 49.894 C 166.450 38.720,195.938 37.157,222.742 45.234 C 229.229 47.189,230.183 45.804,226.186 40.233 C 223.095 35.926,223.289 35.723,229.111 37.166 M210.267 89.471 C 202.873 92.021,200.762 101.288,206.378 106.541 C 215.759 115.315,229.084 102.627,221.055 92.565 C 218.696 89.608,213.876 88.226,210.267 89.471 M216.492 90.272 C 223.308 92.953,225.006 101.065,219.807 106.114 C 214.586 111.185,205.572 108.358,204.030 101.166 C 202.482 93.946,209.728 87.611,216.492 90.272 M291.400 93.973 C 281.746 96.450,279.897 108.295,288.431 112.994 C 296.942 117.681,306.817 108.259,302.423 99.645 C 300.366 95.612,295.256 92.983,291.400 93.973 M295.933 95.017 C 298.565 95.799,300.667 97.636,301.859 100.197 C 306.372 109.888,293.407 118.331,286.245 110.366 C 279.761 103.154,286.639 92.257,295.933 95.017 M138.191 104.748 C 131.299 107.879,130.205 117.526,136.225 122.091 C 143.038 127.259,152.400 122.604,152.400 114.048 C 152.400 106.730,144.791 101.750,138.191 104.748 M145.301 104.971 C 152.319 107.475,154.093 116.323,148.553 121.188 C 141.459 127.416,130.641 120.541,133.193 111.426 C 134.611 106.361,140.459 103.243,145.301 104.971 M188.200 137.605 C 173.670 139.141,155.562 148.668,159.900 152.493 C 160.285 152.833,161.889 153.571,163.465 154.134 C 180.829 160.337,182.246 170.643,166.813 178.494 C 158.737 182.602,157.389 182.421,195.222 182.302 C 232.605 182.185,230.529 182.459,223.289 178.603 C 207.674 170.286,208.590 161.130,225.711 154.400 C 231.208 152.239,231.730 151.487,229.500 148.947 C 222.734 141.241,203.573 135.979,188.200 137.605 M79.942 138.625 C 74.527 139.605,69.856 141.868,66.800 144.993 L 65.000 146.833 64.888 163.820 C 64.763 182.559,64.709 182.133,67.307 182.822 C 78.711 185.845,88.176 198.156,93.124 216.400 C 93.572 218.050,94.052 220.120,94.192 221.000 C 99.937 257.108,130.758 289.089,167.618 297.188 C 199.981 304.300,243.433 291.108,251.246 271.800 C 254.681 263.310,259.592 248.710,262.414 238.600 C 264.455 231.288,267.694 219.980,270.665 209.800 C 271.884 205.620,273.421 200.310,274.079 198.000 C 285.830 156.761,343.672 161.952,347.814 204.617 C 348.979 216.622,342.005 230.755,331.451 237.778 C 322.820 243.521,316.370 244.753,292.800 245.161 L 279.000 245.400 278.314 246.803 C 277.712 248.031,272.977 264.847,271.918 269.516 C 271.223 272.579,269.871 272.400,293.759 272.400 C 323.542 272.400,329.724 271.286,341.996 263.708 C 387.547 235.580,381.586 167.020,331.887 147.433 C 299.689 134.744,261.055 154.026,251.007 187.800 C 249.299 193.541,249.026 194.163,247.985 194.690 C 246.903 195.237,151.955 195.385,150.000 194.843 C 149.297 194.647,147.457 192.411,143.800 187.309 C 116.643 149.414,98.165 135.327,79.942 138.625 M205.080 138.824 C 215.963 140.900,227.368 146.148,229.587 150.101 C 230.401 151.550,229.579 152.331,225.800 153.699 C 207.853 160.194,206.933 171.594,223.706 179.650 C 224.754 180.153,225.549 180.753,225.472 180.983 C 225.283 181.551,164.422 181.568,164.348 181.000 C 164.320 180.780,165.563 179.944,167.111 179.141 C 183.054 170.870,181.797 160.341,164.067 153.631 C 159.393 151.862,159.004 151.124,161.483 148.732 C 166.208 144.175,176.364 140.107,187.600 138.272 C 190.922 137.730,201.013 138.048,205.080 138.824 M91.210 139.365 C 104.530 141.742,123.362 159.322,143.736 188.400 C 145.201 190.490,147.042 192.965,147.827 193.900 L 149.256 195.600 198.739 195.600 C 254.426 195.600,249.612 195.898,250.363 192.400 C 254.701 172.172,271.776 153.521,291.800 147.139 C 337.754 132.492,381.356 174.364,370.599 222.812 C 369.663 227.027,369.349 228.000,367.115 233.600 C 358.570 255.018,337.586 270.094,314.200 271.618 C 307.818 272.034,275.564 272.133,273.613 271.743 C 271.881 271.396,271.906 271.259,277.144 252.827 C 279.395 244.908,278.472 245.473,288.600 245.819 C 303.191 246.319,317.666 244.903,324.175 242.340 C 351.433 231.606,357.026 195.365,334.222 177.243 C 313.159 160.505,281.653 170.322,274.025 196.000 C 273.535 197.650,272.883 199.810,272.575 200.800 C 272.268 201.790,271.190 205.480,270.179 209.000 C 256.980 254.965,255.616 259.336,250.874 270.887 C 248.996 275.462,248.471 276.193,244.674 279.515 C 223.380 298.147,185.865 303.874,155.600 293.114 C 126.569 282.793,101.419 253.936,95.558 224.220 C 91.210 202.180,82.284 187.748,70.200 183.221 C 68.880 182.726,67.350 182.107,66.800 181.846 L 65.800 181.370 65.696 164.215 L 65.591 147.061 67.645 145.081 C 72.764 140.148,82.441 137.800,91.210 139.365 M54.200 153.947 C 52.533 154.986,47.313 160.475,45.021 163.600 C 40.592 169.638,39.190 173.924,38.902 182.300 C 38.650 189.641,38.936 189.946,42.366 186.002 C 45.306 182.621,48.782 180.262,52.400 179.191 C 56.650 177.934,56.400 178.771,56.400 165.800 C 56.400 153.147,56.305 152.636,54.200 153.947 M84.800 154.031 C 79.756 156.312,77.307 161.703,79.000 166.800 C 82.684 177.892,99.045 175.107,98.968 163.400 C 98.920 156.105,91.323 151.082,84.800 154.031 M93.837 155.421 C 100.436 159.501,99.748 168.868,92.600 172.247 C 86.295 175.227,79.194 170.666,79.202 163.640 C 79.212 155.964,87.335 151.401,93.837 155.421 M55.600 165.961 L 55.600 177.522 52.700 178.403 C 48.734 179.607,46.738 180.864,43.043 184.484 C 39.101 188.345,39.020 188.294,39.347 182.169 C 39.895 171.918,43.296 164.974,51.722 156.900 C 55.799 152.993,55.600 152.529,55.600 165.961 M304.998 185.980 C 289.240 189.370,281.187 207.671,289.412 221.404 C 300.284 239.560,327.724 235.658,333.001 215.205 C 337.329 198.434,321.911 182.342,304.998 185.980 M317.079 187.391 C 331.636 192.014,337.672 209.457,329.133 222.224 C 318.080 238.749,292.566 234.341,287.552 215.040 C 283.003 197.531,299.719 181.878,317.079 187.391 M39.075 209.858 C 38.664 210.269,38.750 223.002,39.207 229.400 C 41.202 257.309,48.254 278.241,61.579 295.799 C 68.101 304.394,81.121 317.849,86.158 321.201 C 101.414 331.353,121.286 330.527,128.293 319.449 C 132.703 312.477,132.593 301.676,128.045 295.065 C 122.118 286.451,103.603 285.547,93.355 293.372 C 90.273 295.725,89.581 295.236,77.821 282.400 C 69.579 273.403,69.366 272.873,74.511 274.163 C 89.744 277.983,102.019 261.494,93.031 249.285 C 88.399 242.993,79.108 241.362,68.723 245.019 C 66.882 245.667,66.804 245.661,64.638 244.669 C 53.563 239.599,45.861 229.624,41.594 214.827 C 40.251 210.173,39.750 209.183,39.075 209.858 M41.631 217.342 C 47.376 234.845,61.978 248.987,70.374 245.178 C 81.739 240.022,94.662 246.648,95.122 257.868 C 95.573 268.896,85.840 276.078,74.149 273.344 C 68.346 271.986,68.578 273.161,75.676 281.073 C 83.242 289.506,89.535 295.583,90.712 295.593 C 91.213 295.597,92.533 294.881,93.644 294.003 C 102.707 286.839,119.881 287.010,126.461 294.330 C 132.743 301.318,132.171 315.716,125.362 321.993 C 116.638 330.034,99.708 329.462,86.600 320.682 C 79.346 315.823,65.144 300.377,58.268 289.869 C 49.889 277.064,44.742 263.531,42.039 247.200 C 39.812 233.742,38.425 211.091,39.920 212.586 C 40.043 212.709,40.813 214.849,41.631 217.342 M338.600 285.042 C 325.498 296.102,310.822 301.981,297.430 301.534 L 293.400 301.400 291.221 299.666 C 281.919 292.264,270.594 292.749,264.323 300.819 C 255.585 312.063,261.189 328.567,274.837 331.784 C 290.504 335.477,321.740 316.936,334.192 296.552 C 340.472 286.272,342.062 282.119,338.600 285.042 M338.800 286.838 C 338.800 288.540,330.683 301.013,326.237 306.142 C 317.714 315.976,296.752 328.829,285.665 331.020 C 270.526 334.012,258.913 324.070,261.094 309.983 C 263.314 295.639,278.157 290.561,290.504 299.923 C 298.248 305.796,318.584 300.814,334.418 289.166 C 338.237 286.356,338.800 286.057,338.800 286.838 M152.400 307.848 C 152.400 308.614,154.808 312.734,156.581 315.000 C 164.980 325.737,166.783 330.169,164.798 335.205 C 162.709 340.505,154.647 348.135,144.693 354.232 C 140.921 356.543,141.845 356.821,155.800 357.581 C 160.420 357.832,168.070 358.324,172.800 358.674 C 184.117 359.510,204.224 359.509,215.800 358.671 C 220.640 358.321,228.290 357.829,232.800 357.578 C 246.975 356.790,247.692 356.529,243.197 353.798 C 231.485 346.684,223.731 338.188,223.301 332.000 C 223.005 327.729,223.908 325.950,231.735 315.400 C 233.865 312.529,235.808 309.339,236.182 308.100 C 236.580 306.784,235.995 306.889,228.036 309.570 C 202.285 318.242,184.649 318.085,158.849 308.953 C 153.450 307.041,152.400 306.862,152.400 307.848 M160.800 310.349 C 185.151 318.892,205.295 318.626,230.571 309.428 C 236.568 307.246,236.473 307.820,229.193 317.800 C 221.799 327.934,220.993 331.008,224.086 337.279 C 226.237 341.639,235.614 350.071,243.851 355.053 C 245.465 356.029,241.735 356.455,221.600 357.597 C 217.310 357.840,211.190 358.206,208.000 358.411 C 200.482 358.894,187.347 358.890,180.000 358.403 C 176.810 358.192,171.050 357.835,167.200 357.610 C 149.165 356.557,144.400 356.145,144.400 355.636 C 144.400 355.462,145.908 354.316,147.752 353.089 C 156.050 347.567,162.523 341.310,164.990 336.426 C 167.610 331.240,166.547 327.544,159.749 318.200 C 154.421 310.877,153.460 309.343,153.740 308.612 C 153.991 307.959,153.971 307.954,160.800 310.349 " stroke="none" fill="#848484" fill-rule="evenodd"></path><path id="path3" d="M221.700 34.265 C 220.764 34.642,221.168 36.617,222.509 38.228 C 224.398 40.496,225.820 42.495,226.117 43.300 C 226.517 44.385,226.545 44.390,216.600 41.830 C 197.407 36.892,172.140 37.490,150.000 43.408 C 147.910 43.967,145.534 44.597,144.720 44.810 C 141.934 45.535,133.947 48.301,126.362 51.166 C 121.570 52.976,122.252 54.331,129.386 57.175 C 134.410 59.177,134.613 59.692,130.669 60.421 C 122.480 61.935,105.246 69.465,95.200 75.919 C 70.168 91.999,58.136 105.872,48.988 129.200 C 42.983 144.514,43.370 146.766,50.761 139.514 C 61.508 128.968,71.381 122.025,79.294 119.446 C 84.587 117.720,86.883 117.453,96.400 117.452 C 110.353 117.451,113.046 118.731,121.294 129.282 C 132.431 143.529,150.322 145.093,163.199 132.946 C 172.402 124.263,173.182 113.854,165.439 103.043 C 158.248 93.003,148.799 88.934,131.700 88.515 C 121.274 88.259,120.834 87.958,127.800 85.847 C 148.511 79.570,166.894 81.750,182.800 92.368 C 187.321 95.386,187.034 95.005,187.317 98.376 C 188.877 116.982,207.997 129.265,224.772 122.438 C 251.175 111.693,239.892 79.781,203.429 62.069 C 199.562 60.191,199.427 59.608,202.925 59.888 C 220.029 61.257,242.082 70.949,259.260 84.648 L 261.920 86.770 262.100 96.885 C 262.304 108.310,262.769 110.998,265.584 117.000 C 273.975 134.896,299.566 139.610,313.431 125.815 C 328.584 110.738,319.521 81.848,293.399 61.955 C 285.356 55.831,273.944 49.213,266.600 46.415 C 261.323 44.405,255.463 42.431,251.732 41.406 C 249.569 40.811,246.990 40.073,246.000 39.764 C 243.035 38.839,223.448 34.000,222.800 34.033 C 222.470 34.050,221.975 34.154,221.700 34.265 M232.330 37.031 C 249.152 41.168,262.246 45.174,268.400 48.065 C 269.390 48.530,271.370 49.438,272.800 50.083 C 302.623 63.530,323.495 91.663,319.426 112.931 C 315.427 133.833,287.924 140.197,271.563 124.006 C 264.879 117.392,262.677 110.399,262.621 95.600 C 262.583 85.716,262.806 86.403,258.586 83.154 C 241.357 69.891,222.637 61.613,204.815 59.376 C 198.975 58.642,196.800 58.631,196.800 59.332 C 196.800 59.908,197.241 60.161,201.200 61.859 C 233.195 75.583,248.606 105.060,230.684 118.254 C 213.462 130.932,188.000 118.354,188.000 97.168 C 188.000 95.066,186.925 93.988,181.371 90.521 C 165.613 80.683,147.917 78.949,127.290 85.219 C 116.452 88.514,116.733 89.185,128.950 89.194 C 149.059 89.208,160.085 94.339,166.986 106.893 C 173.243 118.276,168.653 130.846,155.949 137.121 C 142.466 143.781,130.230 140.113,119.859 126.302 C 113.228 117.473,104.428 114.963,87.198 116.987 C 75.822 118.323,65.252 124.488,50.943 138.132 C 45.450 143.369,44.985 143.173,47.157 136.536 C 52.738 119.485,61.020 105.719,72.768 93.965 C 87.043 79.681,114.617 64.245,131.618 61.020 C 137.033 59.993,136.386 59.006,128.200 55.801 C 122.723 53.656,123.127 53.149,133.214 49.502 C 164.695 38.121,193.699 36.188,220.580 43.679 C 229.024 46.032,229.277 45.750,224.398 39.400 C 222.234 36.583,221.904 35.856,222.511 35.249 C 223.080 34.680,221.903 34.466,232.330 37.031 M210.000 90.525 C 207.616 91.281,204.969 94.301,204.379 96.939 C 202.350 106.005,213.070 112.290,219.659 105.897 C 226.894 98.875,219.713 87.447,210.000 90.525 M218.144 92.274 C 224.780 96.938,221.556 107.600,213.509 107.600 C 204.289 107.600,201.479 95.431,209.797 91.521 C 212.192 90.395,215.953 90.734,218.144 92.274 M289.808 95.439 C 285.117 97.156,282.643 103.204,284.752 107.800 C 288.918 116.882,302.434 113.873,302.391 103.874 C 302.364 97.501,295.940 93.195,289.808 95.439 M297.719 96.750 C 304.827 101.143,301.576 112.400,293.200 112.400 C 284.947 112.400,281.645 101.649,288.473 97.009 C 290.935 95.336,295.236 95.216,297.719 96.750 M138.969 105.346 C 129.681 109.551,132.227 123.200,142.298 123.200 C 151.766 123.200,155.120 111.541,147.186 106.212 C 145.083 104.800,141.102 104.380,138.969 105.346 M145.916 106.363 C 153.259 110.141,152.125 120.094,144.084 122.436 C 138.421 124.086,132.453 117.752,134.154 111.898 C 135.605 106.906,141.541 104.113,145.916 106.363 M187.200 136.802 C 171.181 138.955,155.185 147.803,158.571 152.637 C 159.160 153.477,160.193 153.992,165.000 155.836 C 180.296 161.704,180.456 170.583,165.400 178.024 C 159.123 181.127,157.896 182.214,159.833 182.957 C 161.526 183.607,229.892 183.212,230.442 182.549 C 230.958 181.928,228.971 179.600,227.925 179.600 C 227.296 179.600,222.231 177.117,220.058 175.743 C 210.567 169.744,211.476 161.967,222.252 156.966 C 224.344 155.995,226.235 155.200,226.453 155.200 C 230.762 155.200,232.912 150.849,230.077 147.867 C 222.474 139.868,202.581 134.735,187.200 136.802 M77.632 138.045 C 70.977 139.832,64.408 144.386,63.810 147.627 C 63.671 148.382,63.612 156.398,63.679 165.439 C 63.813 183.679,63.687 182.879,66.547 183.626 C 79.248 186.946,89.837 202.223,93.420 222.400 C 93.713 224.050,94.432 227.110,95.018 229.200 C 95.603 231.290,96.175 233.360,96.287 233.800 C 97.827 239.832,105.550 253.947,112.045 262.600 C 138.006 297.187,183.213 309.534,224.824 293.402 C 237.765 288.385,249.371 279.464,252.145 272.400 C 253.464 269.042,257.673 257.414,258.588 254.600 C 261.101 246.876,262.800 241.349,262.800 240.902 C 262.800 240.627,263.136 239.367,263.547 238.102 C 263.958 236.836,264.675 234.450,265.142 232.800 C 266.786 226.979,268.499 220.970,269.246 218.400 C 269.661 216.970,270.360 214.540,270.800 213.000 C 271.240 211.460,271.941 209.030,272.359 207.600 C 272.776 206.170,273.788 202.660,274.606 199.800 C 279.968 181.060,292.633 170.800,310.403 170.800 C 349.341 170.800,360.875 223.633,325.505 239.974 C 319.023 242.969,310.066 244.000,290.542 244.000 C 276.154 244.000,278.140 242.346,273.975 257.800 C 273.560 259.340,272.686 262.527,272.032 264.882 C 269.329 274.618,266.842 273.600,293.314 273.600 C 316.585 273.600,318.884 273.446,326.641 271.364 C 363.806 261.390,384.029 219.035,369.024 182.600 C 362.735 167.331,351.292 155.260,336.574 148.370 C 301.942 132.157,260.413 151.468,249.634 188.797 C 248.955 191.149,248.120 193.215,247.735 193.497 C 246.882 194.121,151.893 194.244,150.260 193.623 C 149.681 193.403,148.058 191.531,146.357 189.123 C 117.234 147.886,96.998 132.846,77.632 138.045 M208.703 138.559 C 216.912 140.620,224.898 144.322,228.867 147.908 C 232.396 151.097,231.974 152.059,225.930 154.592 C 215.493 158.967,212.522 161.896,212.876 167.459 C 213.153 171.812,215.864 174.636,223.400 178.423 C 232.568 183.030,234.057 182.800,195.000 182.800 C 156.801 182.800,157.596 182.902,165.400 179.000 C 182.336 170.532,181.211 160.892,162.484 154.015 C 158.415 152.520,157.962 151.291,160.476 148.564 C 168.770 139.565,192.827 134.575,208.703 138.559 M92.275 138.614 C 105.597 141.616,123.333 158.215,143.642 186.689 C 146.511 190.712,149.194 194.183,149.603 194.402 C 150.085 194.660,167.433 194.800,198.885 194.800 C 253.261 194.800,248.712 195.077,249.584 191.717 C 260.697 148.925,308.701 129.756,344.587 153.781 C 385.437 181.130,381.752 244.029,338.001 266.200 C 326.531 272.012,321.151 272.800,292.944 272.800 C 268.441 272.800,270.496 273.320,272.168 267.545 C 272.701 265.705,273.618 262.310,274.207 260.000 C 276.164 252.321,278.046 246.207,278.640 245.600 C 279.131 245.098,281.620 244.959,293.914 244.749 C 314.171 244.402,320.111 243.583,326.845 240.206 C 349.394 228.900,354.615 199.038,337.167 181.171 C 316.864 160.381,282.458 169.438,274.438 197.685 C 272.995 202.765,270.021 212.983,268.584 217.800 C 267.992 219.780,267.414 221.760,267.298 222.200 C 262.428 240.712,254.339 265.751,250.616 273.837 C 246.862 281.992,229.436 292.313,212.111 296.643 C 183.117 303.889,152.259 297.536,129.600 279.657 C 112.720 266.338,98.709 244.191,94.641 224.400 C 89.777 200.733,80.888 187.194,67.600 183.212 C 64.286 182.219,64.413 182.968,64.406 164.280 C 64.399 146.034,64.269 146.928,67.338 144.100 C 72.757 139.105,83.735 136.690,92.275 138.614 M52.552 154.096 C 43.863 161.839,39.479 168.966,38.205 177.416 C 36.635 187.837,38.039 192.956,41.301 188.700 C 44.803 184.132,49.385 180.835,53.581 179.866 C 57.372 178.990,57.200 179.664,57.200 165.697 C 57.200 150.452,57.053 150.085,52.552 154.096 M56.200 165.800 L 56.200 178.200 53.800 178.919 C 49.349 180.252,47.170 181.601,43.473 185.310 C 38.674 190.125,38.584 190.080,38.662 182.949 C 38.751 174.840,40.019 170.569,44.168 164.400 C 47.006 160.182,54.082 153.099,55.288 153.271 L 56.200 153.400 56.200 165.800 M86.600 154.374 C 77.288 156.641,76.919 169.866,86.092 172.590 C 91.946 174.329,98.128 169.711,98.126 163.600 C 98.124 157.588,92.358 152.972,86.600 154.374 M93.079 156.049 C 97.947 159.058,98.778 165.453,94.830 169.522 C 90.383 174.103,82.086 172.093,80.401 166.026 C 78.338 158.602,86.639 152.069,93.079 156.049 M304.200 185.166 C 283.684 190.348,278.304 217.225,295.350 229.378 C 309.693 239.603,329.226 232.620,333.960 215.574 C 338.870 197.892,322.013 180.667,304.200 185.166 M314.616 185.790 C 331.230 188.969,339.382 208.496,329.970 222.569 C 318.699 239.420,293.146 235.780,287.041 216.454 C 281.546 199.061,296.582 182.340,314.616 185.790 M38.080 206.880 C 36.903 208.057,37.919 231.657,39.625 242.800 C 44.313 273.403,53.329 290.761,76.800 314.376 C 91.843 329.511,109.374 333.612,123.638 325.333 C 135.662 318.354,135.604 296.060,123.546 289.973 C 114.340 285.325,102.202 286.164,93.505 292.047 C 90.613 294.003,90.833 294.031,87.740 291.300 C 85.259 289.109,73.200 276.113,73.200 275.630 C 73.200 275.504,75.585 275.400,78.500 275.400 C 87.533 275.400,94.016 271.026,96.393 263.327 C 100.762 249.184,86.652 238.163,70.695 243.253 L 66.766 244.506 65.083 243.764 C 53.849 238.812,46.016 228.083,41.786 211.855 C 40.443 206.703,39.510 205.450,38.080 206.880 M41.404 213.346 C 45.550 228.691,52.806 238.485,64.415 244.408 C 66.344 245.392,67.361 245.326,71.000 243.984 C 86.644 238.215,101.387 251.546,94.756 265.465 C 91.528 272.239,80.812 276.930,74.274 274.431 C 69.211 272.495,71.451 275.709,84.358 288.900 C 90.482 295.158,90.570 295.195,93.717 292.844 C 101.498 287.032,114.220 286.049,123.145 290.572 C 135.039 296.599,134.583 318.674,122.431 325.151 C 108.428 332.615,91.821 328.388,77.200 313.639 C 57.580 293.847,49.558 280.644,43.260 257.775 C 40.608 248.146,38.408 228.537,38.402 214.474 C 38.399 206.973,39.564 206.535,41.404 213.346 M338.321 283.870 C 333.791 287.894,325.593 293.374,321.200 295.316 C 317.141 297.110,315.686 297.640,312.301 298.556 C 302.521 301.205,294.919 301.235,291.600 298.637 C 277.308 287.450,259.200 295.476,259.200 313.000 C 259.200 330.810,276.611 338.461,295.924 329.137 C 314.641 320.100,325.153 311.765,333.510 299.333 C 342.461 286.017,344.965 277.970,338.321 283.870 M340.800 284.467 C 340.800 286.997,332.574 300.134,326.829 306.777 C 318.644 316.243,298.106 329.041,286.595 331.849 C 268.001 336.386,253.974 319.966,262.303 303.412 C 267.522 293.037,280.136 291.161,290.991 299.147 C 293.990 301.353,294.104 301.380,299.600 301.238 C 312.690 300.898,326.359 295.202,337.793 285.322 C 340.014 283.403,340.800 283.180,340.800 284.467 M151.204 306.195 C 150.265 307.327,152.279 310.854,159.743 321.140 C 163.809 326.744,164.177 327.576,164.190 331.200 C 164.213 337.868,157.409 345.211,142.932 354.141 C 138.656 356.779,140.065 357.832,148.305 358.159 C 151.987 358.305,158.600 358.690,163.000 359.015 C 172.820 359.741,195.254 360.802,196.263 360.589 C 196.668 360.503,201.860 360.237,207.800 359.999 C 213.740 359.761,221.930 359.313,226.000 359.004 C 230.070 358.695,236.280 358.329,239.800 358.191 C 247.263 357.898,247.602 357.832,247.594 356.673 C 247.585 355.423,247.263 355.065,244.800 353.568 C 235.686 348.030,227.600 340.764,225.338 336.081 C 223.083 331.412,223.931 327.860,228.936 321.000 C 239.049 307.139,240.277 302.999,233.214 306.583 C 232.259 307.067,225.016 309.564,220.600 310.931 C 206.441 315.314,191.131 316.038,176.800 313.003 C 175.370 312.700,173.570 312.337,172.800 312.196 C 169.982 311.682,158.134 307.860,154.313 306.233 C 152.464 305.446,151.832 305.438,151.204 306.195 M158.600 308.633 C 184.513 317.765,203.166 317.957,227.800 309.343 C 234.951 306.843,236.800 306.415,236.800 307.263 C 236.800 308.024,233.911 312.906,231.749 315.800 C 224.638 325.314,223.599 327.305,223.604 331.400 C 223.612 337.489,229.688 344.652,241.200 352.143 C 246.971 355.899,247.079 356.010,245.700 356.745 C 245.315 356.950,241.310 357.322,236.800 357.571 C 232.290 357.820,224.640 358.327,219.800 358.697 C 209.085 359.517,179.855 359.638,171.800 358.894 C 168.940 358.631,161.470 358.134,155.200 357.791 C 140.875 357.008,139.958 356.703,144.300 354.166 C 152.898 349.142,161.509 341.320,163.990 336.281 C 166.728 330.720,165.073 326.079,156.541 315.395 C 154.773 313.181,152.000 308.364,152.000 307.506 C 152.000 306.462,152.853 306.607,158.600 308.633 " stroke="none" fill="#575757" fill-rule="evenodd"></path><path id="path4" d="M222.495 35.300 C 221.996 35.920,222.462 37.235,223.455 38.007 C 224.172 38.565,224.174 38.555,223.500 37.762 C 223.115 37.308,222.800 36.559,222.800 36.098 C 222.800 35.635,223.114 35.177,223.500 35.076 C 224.091 34.921,224.098 34.886,223.549 34.846 C 223.191 34.821,222.717 35.025,222.495 35.300 M183.500 39.498 C 185.755 39.570,189.445 39.570,191.700 39.498 C 193.955 39.427,192.110 39.369,187.600 39.369 C 183.090 39.369,181.245 39.427,183.500 39.498 M175.505 39.883 C 176.002 39.979,176.722 39.975,177.105 39.875 C 177.487 39.775,177.080 39.696,176.200 39.701 C 175.320 39.705,175.007 39.787,175.505 39.883 M197.905 39.883 C 198.402 39.979,199.122 39.975,199.505 39.875 C 199.887 39.775,199.480 39.696,198.600 39.701 C 197.720 39.705,197.407 39.787,197.905 39.883 M172.100 40.276 C 172.485 40.376,173.115 40.376,173.500 40.276 C 173.885 40.175,173.570 40.093,172.800 40.093 C 172.030 40.093,171.715 40.175,172.100 40.276 M168.500 40.676 C 168.885 40.776,169.515 40.776,169.900 40.676 C 170.285 40.575,169.970 40.493,169.200 40.493 C 168.430 40.493,168.115 40.575,168.500 40.676 M273.600 50.587 C 273.600 50.697,274.500 51.243,275.600 51.800 C 276.700 52.357,277.600 52.723,277.600 52.613 C 277.600 52.503,276.700 51.957,275.600 51.400 C 274.500 50.843,273.600 50.477,273.600 50.587 M124.822 53.158 C 124.406 53.936,125.311 55.223,125.876 54.657 C 126.018 54.516,125.902 54.400,125.620 54.400 C 125.288 54.400,125.174 54.046,125.298 53.400 C 125.526 52.206,125.374 52.128,124.822 53.158 M133.900 58.396 C 135.323 59.263,135.598 60.237,134.500 60.524 C 133.909 60.679,133.902 60.714,134.451 60.754 C 135.906 60.857,136.081 59.739,134.781 58.645 C 134.098 58.070,133.327 57.601,133.069 57.601 C 132.811 57.602,133.185 57.960,133.900 58.396 M195.833 58.747 C 195.613 59.102,196.535 60.053,197.600 60.569 C 197.965 60.745,197.926 60.634,197.500 60.286 C 196.337 59.333,196.700 58.852,198.700 58.694 C 200.599 58.544,200.599 58.544,198.324 58.472 C 197.072 58.432,195.951 58.556,195.833 58.747 M202.100 59.076 C 202.485 59.176,203.115 59.176,203.500 59.076 C 203.885 58.975,203.570 58.893,202.800 58.893 C 202.030 58.893,201.715 58.975,202.100 59.076 M200.400 61.800 C 200.950 62.114,201.580 62.372,201.800 62.372 C 202.020 62.372,201.750 62.114,201.200 61.800 C 200.650 61.486,200.020 61.228,199.800 61.228 C 199.580 61.228,199.850 61.486,200.400 61.800 M294.800 64.125 C 294.800 64.194,295.385 64.779,296.100 65.425 L 297.400 66.600 296.225 65.300 C 295.130 64.088,294.800 63.816,294.800 64.125 M301.400 70.400 C 303.371 72.380,305.073 74.000,305.183 74.000 C 305.293 74.000,303.771 72.380,301.800 70.400 C 299.829 68.420,298.127 66.800,298.017 66.800 C 297.907 66.800,299.429 68.420,301.400 70.400 M111.600 68.000 C 110.830 68.422,110.380 68.766,110.600 68.766 C 110.820 68.766,111.630 68.422,112.400 68.000 C 113.170 67.578,113.620 67.234,113.400 67.234 C 113.180 67.234,112.370 67.578,111.600 68.000 M104.700 71.227 C 103.875 71.663,103.200 72.108,103.200 72.218 C 103.200 72.396,106.359 70.919,106.767 70.551 C 107.227 70.134,106.025 70.528,104.700 71.227 M216.800 70.925 C 216.800 71.024,217.461 71.609,218.268 72.225 C 219.076 72.841,219.611 73.141,219.456 72.891 C 219.140 72.379,216.800 70.647,216.800 70.925 M240.800 71.379 C 240.800 71.489,241.340 71.859,242.000 72.200 C 242.660 72.541,243.200 72.731,243.200 72.621 C 243.200 72.511,242.660 72.141,242.000 71.800 C 241.340 71.459,240.800 71.269,240.800 71.379 M100.700 73.429 C 99.205 74.240,99.296 74.578,100.800 73.800 C 101.460 73.459,102.000 73.094,102.000 72.990 C 102.000 72.732,101.957 72.747,100.700 73.429 M97.700 75.196 C 96.985 75.632,96.400 76.075,96.400 76.181 C 96.400 76.286,97.030 76.001,97.800 75.547 C 98.570 75.093,99.200 74.649,99.200 74.560 C 99.200 74.305,99.074 74.358,97.700 75.196 M223.583 76.500 C 224.564 77.545,225.419 78.400,225.483 78.400 C 225.784 78.400,225.466 78.041,223.700 76.383 L 221.800 74.600 223.583 76.500 M247.600 75.324 C 247.600 75.417,248.365 75.998,249.300 76.615 C 250.235 77.232,250.789 77.480,250.531 77.168 C 250.034 76.567,247.600 75.036,247.600 75.324 M89.295 80.611 C 88.143 81.386,87.200 82.108,87.200 82.215 C 87.200 82.321,88.190 81.751,89.400 80.947 C 91.322 79.671,91.887 79.200,91.495 79.200 C 91.437 79.200,90.447 79.835,89.295 80.611 M148.300 81.495 C 149.455 81.576,151.345 81.576,152.500 81.495 C 153.655 81.414,152.710 81.348,150.400 81.348 C 148.090 81.348,147.145 81.414,148.300 81.495 M142.500 81.876 C 142.885 81.976,143.515 81.976,143.900 81.876 C 144.285 81.775,143.970 81.693,143.200 81.693 C 142.430 81.693,142.115 81.775,142.500 81.876 M232.749 87.000 C 232.965 87.440,233.434 88.160,233.793 88.600 L 234.444 89.400 234.051 88.600 C 233.835 88.160,233.366 87.440,233.007 87.000 L 232.356 86.200 232.749 87.000 M119.300 87.865 C 118.543 88.170,118.702 89.204,119.500 89.168 C 119.945 89.148,120.012 89.061,119.683 88.930 C 119.287 88.770,119.275 88.592,119.632 88.161 C 120.124 87.568,120.097 87.543,119.300 87.865 M136.305 89.483 C 136.802 89.579,137.522 89.575,137.905 89.475 C 138.287 89.375,137.880 89.296,137.000 89.301 C 136.120 89.305,135.807 89.387,136.305 89.483 M315.628 89.400 C 315.628 89.620,315.886 90.250,316.200 90.800 C 316.514 91.350,316.772 91.620,316.772 91.400 C 316.772 91.180,316.514 90.550,316.200 90.000 C 315.886 89.450,315.628 89.180,315.628 89.400 M75.775 90.900 L 74.600 92.200 75.900 91.025 C 77.112 89.930,77.384 89.600,77.075 89.600 C 77.006 89.600,76.421 90.185,75.775 90.900 M212.505 89.887 C 213.114 89.979,214.014 89.977,214.505 89.882 C 214.997 89.787,214.500 89.711,213.400 89.714 C 212.300 89.717,211.897 89.795,212.505 89.887 M262.553 96.200 C 262.553 98.840,262.618 99.868,262.697 98.484 C 262.775 97.101,262.774 94.941,262.695 93.684 C 262.616 92.428,262.552 93.560,262.553 96.200 M220.400 93.200 C 220.870 93.860,221.344 94.400,221.454 94.400 C 221.564 94.400,221.270 93.860,220.800 93.200 C 220.330 92.540,219.856 92.000,219.746 92.000 C 219.636 92.000,219.930 92.540,220.400 93.200 M152.433 93.349 C 152.845 93.717,155.200 94.800,155.200 94.621 C 155.200 94.390,152.982 93.200,152.553 93.200 C 152.396 93.200,152.342 93.267,152.433 93.349 M292.500 94.676 C 292.885 94.776,293.515 94.776,293.900 94.676 C 294.285 94.575,293.970 94.493,293.200 94.493 C 292.430 94.493,292.115 94.575,292.500 94.676 M70.000 96.600 C 69.028 97.590,68.323 98.400,68.433 98.400 C 68.543 98.400,69.428 97.590,70.400 96.600 C 71.372 95.610,72.077 94.800,71.967 94.800 C 71.857 94.800,70.972 95.610,70.000 96.600 M188.114 97.800 C 188.117 98.900,188.195 99.303,188.287 98.695 C 188.379 98.086,188.377 97.186,188.282 96.695 C 188.187 96.203,188.111 96.700,188.114 97.800 M286.247 97.601 C 285.451 98.482,284.800 99.328,284.800 99.481 C 284.800 99.635,284.935 99.589,285.101 99.380 C 285.267 99.171,286.022 98.325,286.780 97.500 C 287.537 96.675,288.053 96.000,287.925 96.000 C 287.797 96.000,287.042 96.721,286.247 97.601 M299.600 97.400 C 300.346 98.170,301.047 98.800,301.157 98.800 C 301.267 98.800,300.746 98.170,300.000 97.400 C 299.254 96.630,298.553 96.000,298.443 96.000 C 298.333 96.000,298.854 96.630,299.600 97.400 M160.000 98.125 C 160.000 98.194,160.585 98.779,161.300 99.425 L 162.600 100.600 161.425 99.300 C 160.330 98.088,160.000 97.816,160.000 98.125 M238.120 103.600 C 238.120 104.810,238.195 105.305,238.287 104.700 C 238.378 104.095,238.378 103.105,238.287 102.500 C 238.195 101.895,238.120 102.390,238.120 103.600 M302.520 104.000 C 302.520 105.210,302.595 105.705,302.687 105.100 C 302.778 104.495,302.778 103.505,302.687 102.900 C 302.595 102.295,302.520 102.790,302.520 104.000 M283.709 104.000 C 283.709 104.990,283.787 105.395,283.882 104.900 C 283.978 104.405,283.978 103.595,283.882 103.100 C 283.787 102.605,283.709 103.010,283.709 104.000 M164.799 103.900 C 165.322 104.615,165.813 105.200,165.889 105.200 C 166.193 105.200,165.201 103.700,164.545 103.167 C 164.113 102.816,164.210 103.096,164.799 103.900 M319.742 107.400 C 319.741 109.380,319.808 110.240,319.892 109.312 C 319.976 108.384,319.977 106.764,319.895 105.712 C 319.812 104.660,319.743 105.420,319.742 107.400 M141.500 104.682 C 141.995 104.778,142.805 104.778,143.300 104.682 C 143.795 104.587,143.390 104.509,142.400 104.509 C 141.410 104.509,141.005 104.587,141.500 104.682 M136.067 107.100 L 134.565 108.600 135.982 107.401 C 136.762 106.742,137.571 106.067,137.780 105.901 C 137.989 105.735,138.027 105.600,137.865 105.600 C 137.702 105.600,136.893 106.275,136.067 107.100 M167.082 107.789 C 167.673 108.993,168.223 109.911,168.305 109.829 C 168.484 109.649,166.467 105.600,166.198 105.600 C 166.094 105.600,166.492 106.585,167.082 107.789 M212.505 108.687 C 213.114 108.779,214.014 108.777,214.505 108.682 C 214.997 108.587,214.500 108.511,213.400 108.514 C 212.300 108.517,211.897 108.595,212.505 108.687 M191.800 110.000 C 192.141 110.660,192.511 111.200,192.621 111.200 C 192.731 111.200,192.541 110.660,192.200 110.000 C 191.859 109.340,191.489 108.800,191.379 108.800 C 191.269 108.800,191.459 109.340,191.800 110.000 M287.903 111.900 C 288.421 112.395,289.060 112.795,289.322 112.788 C 289.585 112.781,289.440 112.576,289.000 112.332 C 288.560 112.088,287.921 111.688,287.580 111.444 C 287.240 111.200,287.385 111.405,287.903 111.900 M297.800 112.027 C 297.140 112.450,296.805 112.797,297.056 112.798 C 297.306 112.799,297.936 112.446,298.456 112.013 C 299.645 111.023,299.359 111.029,297.800 112.027 M132.920 114.000 C 132.920 115.210,132.995 115.705,133.087 115.100 C 133.178 114.495,133.178 113.505,133.087 112.900 C 132.995 112.295,132.920 112.790,132.920 114.000 M151.693 114.000 C 151.693 114.770,151.775 115.085,151.876 114.700 C 151.976 114.315,151.976 113.685,151.876 113.300 C 151.775 112.915,151.693 113.230,151.693 114.000 M292.100 113.487 C 292.705 113.578,293.695 113.578,294.300 113.487 C 294.905 113.395,294.410 113.320,293.200 113.320 C 291.990 113.320,291.495 113.395,292.100 113.487 M232.981 116.100 L 231.400 117.800 233.100 116.219 C 234.681 114.748,234.984 114.400,234.681 114.400 C 234.616 114.400,233.851 115.165,232.981 116.100 M55.623 116.650 C 55.153 117.448,54.833 118.166,54.913 118.246 C 54.992 118.326,55.461 117.673,55.954 116.796 C 57.075 114.802,56.788 114.677,55.623 116.650 M169.728 117.600 C 169.728 119.030,169.801 119.615,169.889 118.900 C 169.978 118.185,169.978 117.015,169.889 116.300 C 169.801 115.585,169.728 116.170,169.728 117.600 M94.700 116.293 C 95.635 116.377,97.165 116.377,98.100 116.293 C 99.035 116.209,98.270 116.140,96.400 116.140 C 94.530 116.140,93.765 116.209,94.700 116.293 M88.705 116.683 C 89.202 116.779,89.922 116.775,90.305 116.675 C 90.687 116.575,90.280 116.496,89.400 116.501 C 88.520 116.505,88.207 116.587,88.705 116.683 M102.500 116.676 C 102.885 116.776,103.515 116.776,103.900 116.676 C 104.285 116.575,103.970 116.493,103.200 116.493 C 102.430 116.493,102.115 116.575,102.500 116.676 M133.200 116.953 C 133.200 117.382,134.390 119.600,134.621 119.600 C 134.731 119.600,134.523 119.015,134.159 118.300 C 133.417 116.840,133.200 116.536,133.200 116.953 M200.600 119.365 C 201.260 119.932,201.965 120.397,202.167 120.398 C 202.601 120.400,202.596 120.396,200.800 119.237 L 199.400 118.334 200.600 119.365 M267.564 119.533 C 267.780 119.936,268.271 120.521,268.655 120.833 C 269.087 121.184,268.990 120.904,268.401 120.100 C 267.351 118.665,266.957 118.398,267.564 119.533 M75.200 119.800 C 74.650 120.114,74.380 120.372,74.600 120.372 C 74.820 120.372,75.450 120.114,76.000 119.800 C 76.550 119.486,76.820 119.228,76.600 119.228 C 76.380 119.228,75.750 119.486,75.200 119.800 M115.600 121.325 C 115.600 121.394,116.185 121.979,116.900 122.625 L 118.200 123.800 117.025 122.500 C 115.930 121.288,115.600 121.016,115.600 121.325 M271.200 123.800 C 272.395 125.010,273.463 126.000,273.573 126.000 C 273.683 126.000,272.795 125.010,271.600 123.800 C 270.405 122.590,269.337 121.600,269.227 121.600 C 269.117 121.600,270.005 122.590,271.200 123.800 M220.000 122.800 C 219.196 123.057,219.157 123.123,219.800 123.132 C 220.240 123.138,220.960 122.989,221.400 122.800 C 222.419 122.362,221.368 122.362,220.000 122.800 M141.100 123.489 C 141.815 123.578,142.985 123.578,143.700 123.489 C 144.415 123.401,143.830 123.328,142.400 123.328 C 140.970 123.328,140.385 123.401,141.100 123.489 M212.900 123.494 C 213.945 123.576,215.655 123.576,216.700 123.494 C 217.745 123.412,216.890 123.344,214.800 123.344 C 212.710 123.344,211.855 123.412,212.900 123.494 M167.000 126.800 C 166.659 127.460,166.469 128.000,166.579 128.000 C 166.689 128.000,167.059 127.460,167.400 126.800 C 167.741 126.140,167.931 125.600,167.821 125.600 C 167.711 125.600,167.341 126.140,167.000 126.800 M291.511 133.093 C 292.451 133.178,293.891 133.177,294.711 133.091 C 295.530 133.005,294.760 132.936,293.000 132.937 C 291.240 132.939,290.570 133.009,291.511 133.093 M54.378 134.700 L 53.000 136.200 54.500 134.822 C 55.896 133.538,56.184 133.200,55.878 133.200 C 55.812 133.200,55.137 133.875,54.378 134.700 M50.000 138.600 C 47.228 141.397,46.553 141.706,46.282 140.300 C 46.157 139.649,46.094 139.760,46.054 140.700 C 45.973 142.647,46.679 142.343,50.000 139.000 C 51.639 137.350,52.889 136.000,52.778 136.000 C 52.668 136.000,51.417 137.170,50.000 138.600 M188.705 137.483 C 189.202 137.579,189.922 137.575,190.305 137.475 C 190.687 137.375,190.280 137.296,189.400 137.301 C 188.520 137.305,188.207 137.387,188.705 137.483 M199.505 137.483 C 200.002 137.579,200.722 137.575,201.105 137.475 C 201.487 137.375,201.080 137.296,200.200 137.301 C 199.320 137.305,199.007 137.387,199.505 137.483 M142.100 140.291 C 142.925 140.378,144.275 140.378,145.100 140.291 C 145.925 140.205,145.250 140.134,143.600 140.134 C 141.950 140.134,141.275 140.205,142.100 140.291 M168.300 143.029 C 166.805 143.840,166.896 144.178,168.400 143.400 C 169.060 143.059,169.600 142.694,169.600 142.590 C 169.600 142.332,169.557 142.347,168.300 143.029 M66.800 144.600 C 65.828 145.590,65.123 146.400,65.233 146.400 C 65.343 146.400,66.228 145.590,67.200 144.600 C 68.172 143.610,68.877 142.800,68.767 142.800 C 68.657 142.800,67.772 143.610,66.800 144.600 M308.700 143.493 C 309.635 143.577,311.165 143.577,312.100 143.493 C 313.035 143.409,312.270 143.340,310.400 143.340 C 308.530 143.340,307.765 143.409,308.700 143.493 M302.900 143.876 C 303.285 143.976,303.915 143.976,304.300 143.876 C 304.685 143.775,304.370 143.693,303.600 143.693 C 302.830 143.693,302.515 143.775,302.900 143.876 M64.649 147.415 C 64.512 147.773,64.441 155.476,64.491 164.533 L 64.583 181.000 64.791 164.000 C 65.015 145.777,65.021 146.448,64.649 147.415 M229.048 148.383 C 229.734 149.162,230.494 150.160,230.736 150.600 C 230.978 151.040,231.181 151.165,231.188 150.877 C 231.195 150.589,230.435 149.591,229.500 148.660 C 228.353 147.518,228.206 147.428,229.048 148.383 M287.200 147.800 C 286.650 148.114,286.380 148.372,286.600 148.372 C 286.820 148.372,287.450 148.114,288.000 147.800 C 288.550 147.486,288.820 147.228,288.600 147.228 C 288.380 147.228,287.750 147.486,287.200 147.800 M332.800 147.800 C 333.350 148.114,333.980 148.372,334.200 148.372 C 334.420 148.372,334.150 148.114,333.600 147.800 C 333.050 147.486,332.420 147.228,332.200 147.228 C 331.980 147.228,332.250 147.486,332.800 147.800 M283.600 149.400 C 282.610 149.930,281.980 150.364,282.200 150.364 C 282.420 150.364,283.410 149.930,284.400 149.400 C 285.390 148.870,286.020 148.436,285.800 148.436 C 285.580 148.436,284.590 148.870,283.600 149.400 M336.000 149.200 C 336.770 149.622,337.580 149.966,337.800 149.966 C 338.020 149.966,337.570 149.622,336.800 149.200 C 336.030 148.778,335.220 148.434,335.000 148.434 C 334.780 148.434,335.230 148.778,336.000 149.200 M117.600 155.800 C 120.784 158.990,123.480 161.600,123.590 161.600 C 123.700 161.600,121.184 158.990,118.000 155.800 C 114.816 152.610,112.120 150.000,112.010 150.000 C 111.900 150.000,114.416 152.610,117.600 155.800 M50.000 157.400 C 48.361 159.050,47.110 160.400,47.220 160.400 C 47.330 160.400,48.761 159.050,50.400 157.400 C 52.039 155.750,53.290 154.400,53.180 154.400 C 53.070 154.400,51.639 155.750,50.000 157.400 M166.400 155.600 C 167.170 156.022,167.980 156.366,168.200 156.366 C 168.420 156.366,167.970 156.022,167.200 155.600 C 166.430 155.178,165.620 154.834,165.400 154.834 C 165.180 154.834,165.630 155.178,166.400 155.600 M223.200 155.400 C 222.650 155.714,222.380 155.972,222.600 155.972 C 222.820 155.972,223.450 155.714,224.000 155.400 C 224.550 155.086,224.820 154.828,224.600 154.828 C 224.380 154.828,223.750 155.086,223.200 155.400 M81.775 156.900 L 80.600 158.200 81.900 157.025 C 83.112 155.930,83.384 155.600,83.075 155.600 C 83.006 155.600,82.421 156.185,81.775 156.900 M220.300 156.629 C 218.749 157.470,218.925 157.761,220.500 156.959 C 222.008 156.193,222.275 155.994,221.767 156.016 C 221.565 156.025,220.905 156.301,220.300 156.629 M97.078 159.395 C 97.444 160.162,97.814 160.719,97.901 160.632 C 98.084 160.449,96.870 158.000,96.596 158.000 C 96.495 158.000,96.712 158.628,97.078 159.395 M173.600 159.800 C 174.346 160.570,175.047 161.200,175.157 161.200 C 175.267 161.200,174.746 160.570,174.000 159.800 C 173.254 159.030,172.553 158.400,172.443 158.400 C 172.333 158.400,172.854 159.030,173.600 159.800 M266.400 161.800 C 264.761 163.450,263.510 164.800,263.620 164.800 C 263.730 164.800,265.161 163.450,266.800 161.800 C 268.439 160.150,269.690 158.800,269.580 158.800 C 269.470 158.800,268.039 160.150,266.400 161.800 M351.200 158.910 C 351.200 158.971,352.595 160.366,354.300 162.010 L 357.400 165.000 354.410 161.900 C 351.633 159.021,351.200 158.617,351.200 158.910 M175.855 162.600 C 176.780 164.179,176.800 164.203,176.800 163.711 C 176.800 163.479,176.429 162.864,175.976 162.344 L 175.153 161.400 175.855 162.600 M124.400 162.925 C 124.400 162.994,124.985 163.579,125.700 164.225 L 127.000 165.400 125.825 164.100 C 124.730 162.888,124.400 162.616,124.400 162.925 M212.509 166.800 C 212.509 167.790,212.587 168.195,212.682 167.700 C 212.778 167.205,212.778 166.395,212.682 165.900 C 212.587 165.405,212.509 165.810,212.509 166.800 M128.000 167.000 C 128.746 167.770,129.447 168.400,129.557 168.400 C 129.667 168.400,129.146 167.770,128.400 167.000 C 127.654 166.230,126.953 165.600,126.843 165.600 C 126.733 165.600,127.254 166.230,128.000 167.000 M95.178 170.300 L 93.800 171.800 95.300 170.422 C 96.696 169.138,96.984 168.800,96.678 168.800 C 96.612 168.800,95.937 169.475,95.178 170.300 M259.200 170.400 C 258.730 171.060,258.436 171.600,258.546 171.600 C 258.656 171.600,259.130 171.060,259.600 170.400 C 260.070 169.740,260.364 169.200,260.254 169.200 C 260.144 169.200,259.670 169.740,259.200 170.400 M308.500 169.894 C 309.545 169.976,311.255 169.976,312.300 169.894 C 313.345 169.812,312.490 169.744,310.400 169.744 C 308.310 169.744,307.455 169.812,308.500 169.894 M214.400 172.525 C 214.400 172.594,214.985 173.179,215.700 173.825 L 217.000 175.000 215.825 173.700 C 214.730 172.488,214.400 172.216,214.400 172.525 M335.600 179.325 C 335.600 179.394,336.185 179.979,336.900 180.625 L 338.200 181.800 337.025 180.500 C 335.930 179.288,335.600 179.016,335.600 179.325 M226.737 180.418 C 227.589 180.937,227.992 181.444,227.849 181.816 C 227.715 182.165,227.862 182.400,228.213 182.400 C 229.225 182.400,228.850 181.438,227.473 180.500 C 226.745 180.005,225.982 179.601,225.775 179.601 C 225.569 179.602,226.001 179.970,226.737 180.418 M162.089 180.623 C 161.065 181.340,160.906 182.400,161.824 182.400 C 162.167 182.400,162.329 182.209,162.184 181.975 C 162.040 181.741,162.237 181.201,162.623 180.775 C 163.470 179.838,163.284 179.785,162.089 180.623 M38.577 184.400 C 38.602 189.043,39.263 189.993,41.022 187.918 L 41.800 187.000 40.969 187.700 C 39.161 189.222,38.839 188.742,38.691 184.300 L 38.554 180.200 38.577 184.400 M282.581 182.100 L 281.000 183.800 282.700 182.219 C 284.281 180.748,284.584 180.400,284.281 180.400 C 284.216 180.400,283.451 181.165,282.581 182.100 M367.228 181.000 C 367.228 181.220,367.486 181.850,367.800 182.400 C 368.114 182.950,368.372 183.220,368.372 183.000 C 368.372 182.780,368.114 182.150,367.800 181.600 C 367.486 181.050,367.228 180.780,367.228 181.000 M338.000 182.125 C 338.000 182.194,338.585 182.779,339.300 183.425 L 340.600 184.600 339.425 183.300 C 338.330 182.088,338.000 181.816,338.000 182.125 M178.930 182.700 C 187.911 182.760,202.491 182.760,211.330 182.700 C 220.168 182.640,212.820 182.591,195.000 182.591 C 177.180 182.591,169.948 182.640,178.930 182.700 M43.600 184.600 C 42.628 185.590,41.923 186.400,42.033 186.400 C 42.143 186.400,43.028 185.590,44.000 184.600 C 44.972 183.610,45.677 182.800,45.567 182.800 C 45.457 182.800,44.572 183.610,43.600 184.600 M70.433 184.149 C 70.845 184.517,73.200 185.600,73.200 185.421 C 73.200 185.190,70.982 184.000,70.553 184.000 C 70.396 184.000,70.342 184.067,70.433 184.149 M308.700 185.489 C 309.415 185.578,310.585 185.578,311.300 185.489 C 312.015 185.401,311.430 185.328,310.000 185.328 C 308.570 185.328,307.985 185.401,308.700 185.489 M326.600 192.400 C 327.683 193.500,328.660 194.400,328.770 194.400 C 328.880 194.400,328.083 193.500,327.000 192.400 C 325.917 191.300,324.940 190.400,324.830 190.400 C 324.720 190.400,325.517 191.300,326.600 192.400 M80.800 192.200 C 81.546 192.970,82.247 193.600,82.357 193.600 C 82.467 193.600,81.946 192.970,81.200 192.200 C 80.454 191.430,79.753 190.800,79.643 190.800 C 79.533 190.800,80.054 191.430,80.800 192.200 M174.931 195.100 C 188.313 195.158,210.093 195.158,223.331 195.100 C 236.569 195.041,225.620 194.994,199.000 194.994 C 172.380 194.994,161.549 195.042,174.931 195.100 M84.400 196.800 C 84.870 197.460,85.344 198.000,85.454 198.000 C 85.564 198.000,85.270 197.460,84.800 196.800 C 84.330 196.140,83.856 195.600,83.746 195.600 C 83.636 195.600,83.930 196.140,84.400 196.800 M288.380 198.439 C 287.920 199.340,287.613 200.146,287.697 200.230 C 287.781 200.314,288.241 199.576,288.719 198.591 C 289.809 196.347,289.515 196.215,288.380 198.439 M331.628 199.400 C 331.628 199.620,331.886 200.250,332.200 200.800 C 332.514 201.350,332.772 201.620,332.772 201.400 C 332.772 201.180,332.514 200.550,332.200 200.000 C 331.886 199.450,331.628 199.180,331.628 199.400 M347.293 202.400 C 347.293 203.170,347.375 203.485,347.476 203.100 C 347.576 202.715,347.576 202.085,347.476 201.700 C 347.375 201.315,347.293 201.630,347.293 202.400 M372.914 203.400 C 372.917 204.500,372.995 204.903,373.087 204.295 C 373.179 203.686,373.177 202.786,373.082 202.295 C 372.987 201.803,372.911 202.300,372.914 203.400 M347.728 206.800 C 347.728 208.230,347.801 208.815,347.889 208.100 C 347.978 207.385,347.978 206.215,347.889 205.500 C 347.801 204.785,347.728 205.370,347.728 206.800 M333.701 207.400 C 333.705 208.280,333.787 208.593,333.883 208.095 C 333.979 207.598,333.975 206.878,333.875 206.495 C 333.775 206.113,333.696 206.520,333.701 207.400 M271.029 208.229 C 270.881 208.815,270.838 209.372,270.932 209.466 C 271.027 209.560,271.224 209.158,271.371 208.571 C 271.519 207.985,271.562 207.428,271.468 207.334 C 271.373 207.240,271.176 207.642,271.029 208.229 M38.828 209.148 C 38.566 209.637,38.433 212.322,38.484 216.074 L 38.568 222.200 38.784 216.000 C 38.979 210.416,39.069 209.806,39.700 209.856 C 40.548 209.923,40.604 209.468,39.828 208.823 C 39.371 208.444,39.170 208.509,38.828 209.148 M333.701 211.400 C 333.705 212.280,333.787 212.593,333.883 212.095 C 333.979 211.598,333.975 210.878,333.875 210.495 C 333.775 210.113,333.696 210.520,333.701 211.400 M372.914 212.600 C 372.917 213.700,372.995 214.103,373.087 213.495 C 373.179 212.886,373.177 211.986,373.082 211.495 C 372.987 211.003,372.911 211.500,372.914 212.600 M92.856 216.400 C 92.856 216.730,93.011 217.360,93.200 217.800 C 93.417 218.304,93.544 218.378,93.544 218.000 C 93.544 217.670,93.389 217.040,93.200 216.600 C 92.983 216.096,92.856 216.022,92.856 216.400 M331.281 219.809 C 330.802 220.794,330.494 221.600,330.597 221.600 C 330.868 221.600,332.484 218.351,332.303 218.170 C 332.219 218.086,331.759 218.824,331.281 219.809 M344.272 222.219 C 343.332 224.189,343.464 224.524,344.447 222.662 C 344.893 221.816,345.187 221.054,345.101 220.967 C 345.014 220.881,344.641 221.444,344.272 222.219 M292.800 226.200 C 293.995 227.410,295.063 228.400,295.173 228.400 C 295.283 228.400,294.395 227.410,293.200 226.200 C 292.005 224.990,290.937 224.000,290.827 224.000 C 290.717 224.000,291.605 224.990,292.800 226.200 M326.581 226.500 L 325.000 228.200 326.700 226.619 C 328.281 225.148,328.584 224.800,328.281 224.800 C 328.216 224.800,327.451 225.565,326.581 226.500 M38.924 228.200 C 38.926 229.520,39.001 230.012,39.090 229.293 C 39.179 228.574,39.177 227.494,39.086 226.893 C 38.995 226.292,38.922 226.880,38.924 228.200 M46.786 227.973 C 47.227 228.838,47.761 229.652,47.971 229.782 C 48.182 229.912,47.899 229.205,47.343 228.209 C 46.101 225.987,45.682 225.809,46.786 227.973 M321.900 229.829 C 320.405 230.640,320.496 230.978,322.000 230.200 C 322.660 229.859,323.200 229.494,323.200 229.390 C 323.200 229.132,323.157 229.147,321.900 229.829 M336.388 233.500 L 333.800 236.200 336.500 233.612 C 337.985 232.188,339.200 230.973,339.200 230.912 C 339.200 230.617,338.793 230.992,336.388 233.500 M368.065 233.017 C 367.395 234.488,367.523 234.802,368.247 233.465 C 368.586 232.840,368.788 232.254,368.696 232.163 C 368.605 232.071,368.321 232.456,368.065 233.017 M39.301 233.800 C 39.305 234.680,39.387 234.993,39.483 234.495 C 39.579 233.998,39.575 233.278,39.475 232.895 C 39.375 232.513,39.296 232.920,39.301 233.800 M53.400 236.800 C 54.706 238.120,55.865 239.200,55.975 239.200 C 56.085 239.200,55.106 238.120,53.800 236.800 C 52.494 235.480,51.335 234.400,51.225 234.400 C 51.115 234.400,52.094 235.480,53.400 236.800 M365.882 237.811 C 365.292 239.015,364.894 240.000,364.998 240.000 C 365.267 240.000,367.284 235.951,367.105 235.771 C 367.023 235.689,366.473 236.607,365.882 237.811 M98.828 238.200 C 98.828 238.420,99.086 239.050,99.400 239.600 C 99.714 240.150,99.972 240.420,99.972 240.200 C 99.972 239.980,99.714 239.350,99.400 238.800 C 99.086 238.250,98.828 237.980,98.828 238.200 M363.753 241.700 C 362.376 244.036,362.286 244.235,362.987 243.400 C 363.800 242.432,364.500 241.200,364.238 241.200 C 364.133 241.200,363.915 241.425,363.753 241.700 M69.200 244.600 C 68.650 244.914,68.380 245.172,68.600 245.172 C 68.820 245.172,69.450 244.914,70.000 244.600 C 70.550 244.286,70.820 244.028,70.600 244.028 C 70.380 244.028,69.750 244.286,69.200 244.600 M86.033 244.136 C 86.665 244.650,90.754 246.649,90.571 246.354 C 90.333 245.968,86.633 244.000,86.147 244.000 C 85.993 244.000,85.942 244.061,86.033 244.136 M310.500 244.276 C 310.885 244.376,311.515 244.376,311.900 244.276 C 312.285 244.175,311.970 244.093,311.200 244.093 C 310.430 244.093,310.115 244.175,310.500 244.276 M305.900 244.682 C 306.395 244.778,307.205 244.778,307.700 244.682 C 308.195 244.587,307.790 244.509,306.800 244.509 C 305.810 244.509,305.405 244.587,305.900 244.682 M285.925 245.099 C 289.293 245.166,294.693 245.166,297.925 245.099 C 301.156 245.032,298.400 244.977,291.800 244.977 C 285.200 244.977,282.556 245.032,285.925 245.099 M103.000 247.200 C 103.557 248.300,104.103 249.200,104.213 249.200 C 104.323 249.200,103.957 248.300,103.400 247.200 C 102.843 246.100,102.297 245.200,102.187 245.200 C 102.077 245.200,102.443 246.100,103.000 247.200 M93.199 249.500 C 93.722 250.215,94.213 250.800,94.289 250.800 C 94.593 250.800,93.601 249.300,92.945 248.767 C 92.513 248.416,92.610 248.696,93.199 249.500 M353.792 254.500 L 350.200 258.200 353.900 254.608 C 355.935 252.633,357.600 250.968,357.600 250.908 C 357.600 250.618,357.128 251.064,353.792 254.500 M96.124 258.600 C 96.126 259.920,96.201 260.412,96.290 259.693 C 96.379 258.974,96.377 257.894,96.286 257.293 C 96.195 256.692,96.122 257.280,96.124 258.600 M116.000 266.525 C 116.000 266.594,116.585 267.179,117.300 267.825 L 118.600 269.000 117.425 267.700 C 116.330 266.488,116.000 266.216,116.000 266.525 M91.381 269.700 L 89.800 271.400 91.500 269.819 C 93.081 268.348,93.384 268.000,93.081 268.000 C 93.016 268.000,92.251 268.765,91.381 269.700 M121.400 272.400 C 122.928 273.940,124.269 275.200,124.379 275.200 C 124.489 275.200,123.328 273.940,121.800 272.400 C 120.272 270.860,118.931 269.600,118.821 269.600 C 118.711 269.600,119.872 270.860,121.400 272.400 M271.206 270.871 C 271.189 272.826,270.948 272.807,293.729 272.705 L 315.000 272.611 293.612 272.405 L 272.223 272.200 271.718 271.200 C 271.371 270.515,271.210 270.412,271.206 270.871 M71.036 273.941 C 70.920 274.129,71.081 274.624,71.393 275.041 C 71.937 275.769,71.951 275.765,71.742 274.933 C 71.572 274.256,71.729 274.027,72.462 273.887 C 73.331 273.722,73.321 273.705,72.324 273.654 C 71.732 273.625,71.152 273.753,71.036 273.941 M73.400 277.600 C 74.259 278.480,75.052 279.200,75.162 279.200 C 75.272 279.200,74.659 278.480,73.800 277.600 C 72.941 276.720,72.148 276.000,72.038 276.000 C 71.928 276.000,72.541 276.720,73.400 277.600 M247.600 277.800 C 246.628 278.790,245.923 279.600,246.033 279.600 C 246.143 279.600,247.028 278.790,248.000 277.800 C 248.972 276.810,249.677 276.000,249.567 276.000 C 249.457 276.000,248.572 276.810,247.600 277.800 M244.175 280.900 L 243.000 282.200 244.300 281.025 C 245.015 280.379,245.600 279.794,245.600 279.725 C 245.600 279.416,245.270 279.688,244.175 280.900 M130.400 280.133 C 130.400 280.243,131.120 280.903,132.000 281.600 C 132.880 282.297,133.600 282.777,133.600 282.667 C 133.600 282.557,132.880 281.897,132.000 281.200 C 131.120 280.503,130.400 280.023,130.400 280.133 M77.583 282.100 C 78.564 283.145,79.419 284.000,79.483 284.000 C 79.784 284.000,79.466 283.641,77.700 281.983 L 75.800 280.200 77.583 282.100 M337.789 285.431 L 335.800 287.261 337.826 285.631 C 340.181 283.735,340.288 283.706,340.518 284.900 C 340.666 285.672,340.699 285.643,340.746 284.700 C 340.823 283.133,340.088 283.315,337.789 285.431 M84.400 289.400 C 87.143 292.150,89.478 294.400,89.588 294.400 C 89.698 294.400,87.543 292.150,84.800 289.400 C 82.057 286.650,79.722 284.400,79.612 284.400 C 79.502 284.400,81.657 286.650,84.400 289.400 M234.700 287.429 C 233.205 288.240,233.296 288.578,234.800 287.800 C 235.460 287.459,236.000 287.094,236.000 286.990 C 236.000 286.732,235.957 286.747,234.700 287.429 M108.500 287.891 C 109.325 287.978,110.675 287.978,111.500 287.891 C 112.325 287.805,111.650 287.734,110.000 287.734 C 108.350 287.734,107.675 287.805,108.500 287.891 M98.400 290.000 C 97.630 290.422,97.180 290.766,97.400 290.766 C 97.620 290.766,98.430 290.422,99.200 290.000 C 99.970 289.578,100.420 289.234,100.200 289.234 C 99.980 289.234,99.170 289.578,98.400 290.000 M324.600 294.400 C 323.500 295.052,322.748 295.589,322.929 295.593 C 323.320 295.601,326.800 293.596,326.800 293.362 C 326.800 293.106,326.711 293.148,324.600 294.400 M276.300 294.282 C 276.795 294.378,277.605 294.378,278.100 294.282 C 278.595 294.187,278.190 294.109,277.200 294.109 C 276.210 294.109,275.805 294.187,276.300 294.282 M284.833 295.751 C 285.242 296.121,288.400 297.595,288.400 297.416 C 288.400 297.189,285.381 295.600,284.949 295.600 C 284.794 295.600,284.742 295.668,284.833 295.751 M267.722 297.029 L 266.600 298.058 267.900 297.154 C 268.615 296.657,269.200 296.193,269.200 296.125 C 269.200 295.809,268.758 296.080,267.722 297.029 M63.200 298.525 C 63.200 298.594,63.785 299.179,64.500 299.825 L 65.800 301.000 64.625 299.700 C 63.530 298.488,63.200 298.216,63.200 298.525 M174.500 298.676 C 174.885 298.776,175.515 298.776,175.900 298.676 C 176.285 298.575,175.970 298.493,175.200 298.493 C 174.430 298.493,174.115 298.575,174.500 298.676 M178.500 299.076 C 178.885 299.176,179.515 299.176,179.900 299.076 C 180.285 298.975,179.970 298.893,179.200 298.893 C 178.430 298.893,178.115 298.975,178.500 299.076 M196.305 299.083 C 196.802 299.179,197.522 299.175,197.905 299.075 C 198.287 298.975,197.880 298.896,197.000 298.901 C 196.120 298.905,195.807 298.987,196.305 299.083 M185.119 299.498 C 186.944 299.572,189.824 299.572,191.519 299.497 C 193.214 299.422,191.720 299.361,188.200 299.362 C 184.680 299.362,183.294 299.424,185.119 299.498 M264.551 300.100 C 263.370 301.448,262.680 302.400,262.884 302.400 C 262.984 302.400,263.645 301.680,264.352 300.800 C 265.725 299.092,265.864 298.601,264.551 300.100 M298.691 301.489 C 299.401 301.577,300.661 301.579,301.491 301.492 C 302.321 301.405,301.740 301.333,300.200 301.331 C 298.660 301.329,297.981 301.400,298.691 301.489 M69.800 306.000 C 70.659 306.880,71.452 307.600,71.562 307.600 C 71.672 307.600,71.059 306.880,70.200 306.000 C 69.341 305.120,68.548 304.400,68.438 304.400 C 68.328 304.400,68.941 305.120,69.800 306.000 M131.714 307.400 C 131.717 308.500,131.795 308.903,131.887 308.295 C 131.979 307.686,131.977 306.786,131.882 306.295 C 131.787 305.803,131.711 306.300,131.714 307.400 M324.388 309.100 L 321.800 311.800 324.500 309.212 C 325.985 307.788,327.200 306.573,327.200 306.512 C 327.200 306.217,326.793 306.592,324.388 309.100 M152.046 307.700 C 152.079 308.338,152.145 308.403,152.271 307.925 C 152.369 307.553,152.843 307.173,153.325 307.079 C 154.045 306.939,154.006 306.899,153.100 306.854 C 152.197 306.810,152.008 306.962,152.046 307.700 M234.000 307.195 C 233.591 307.456,233.891 307.498,234.946 307.329 C 236.429 307.090,236.481 307.119,236.220 308.040 C 236.010 308.778,236.045 308.861,236.368 308.400 C 237.358 306.986,235.673 306.128,234.000 307.195 M77.593 314.100 C 79.899 316.465,81.834 318.400,81.893 318.400 C 82.182 318.400,81.694 317.887,77.700 313.993 L 73.400 309.800 77.593 314.100 M191.300 315.897 C 193.005 315.972,195.795 315.972,197.500 315.897 C 199.205 315.822,197.810 315.761,194.400 315.761 C 190.990 315.761,189.595 315.822,191.300 315.897 M82.998 319.137 C 83.434 319.652,84.153 320.259,84.596 320.486 C 85.445 320.921,85.321 320.787,83.403 319.194 C 82.248 318.235,82.234 318.233,82.998 319.137 M126.000 322.200 C 125.028 323.190,124.323 324.000,124.433 324.000 C 124.543 324.000,125.428 323.190,126.400 322.200 C 127.372 321.210,128.077 320.400,127.967 320.400 C 127.857 320.400,126.972 321.210,126.000 322.200 M305.100 323.227 C 304.275 323.663,303.600 324.108,303.600 324.218 C 303.600 324.327,304.320 324.049,305.200 323.600 C 306.080 323.151,306.800 322.697,306.800 322.592 C 306.800 322.330,306.797 322.331,305.100 323.227 M225.699 323.700 C 225.102 324.448,223.921 326.855,224.076 327.009 C 224.150 327.083,224.683 326.256,225.262 325.172 C 226.316 323.194,226.443 322.768,225.699 323.700 M265.583 326.900 C 266.564 327.945,267.419 328.800,267.483 328.800 C 267.784 328.800,267.466 328.441,265.700 326.783 L 263.800 325.000 265.583 326.900 M107.305 328.687 C 107.914 328.779,108.814 328.777,109.305 328.682 C 109.797 328.587,109.300 328.511,108.200 328.514 C 107.100 328.517,106.697 328.595,107.305 328.687 M223.328 331.200 C 223.328 332.630,223.401 333.215,223.489 332.500 C 223.578 331.785,223.578 330.615,223.489 329.900 C 223.401 329.185,223.328 329.770,223.328 331.200 M165.324 331.400 C 165.326 332.720,165.401 333.212,165.490 332.493 C 165.579 331.774,165.577 330.694,165.486 330.093 C 165.395 329.492,165.322 330.080,165.324 331.400 M279.305 332.687 C 279.914 332.779,280.814 332.777,281.305 332.682 C 281.797 332.587,281.300 332.511,280.200 332.514 C 279.100 332.517,278.697 332.595,279.305 332.687 M163.494 337.303 L 162.788 338.600 163.594 337.656 C 164.280 336.852,164.646 335.994,164.300 336.003 C 164.245 336.004,163.882 336.589,163.494 337.303 M158.591 343.300 L 155.400 346.600 158.700 343.409 C 161.765 340.446,162.182 340.000,161.891 340.000 C 161.830 340.000,160.345 341.485,158.591 343.300 M244.762 354.722 C 246.139 355.831,245.636 356.717,243.522 356.906 L 241.800 357.060 243.424 357.130 C 246.484 357.262,247.206 355.603,244.633 354.351 C 243.956 354.022,243.980 354.092,244.762 354.722 M143.100 354.832 C 141.250 355.909,142.880 357.475,145.452 357.091 C 146.310 356.963,146.168 356.905,144.887 356.860 C 142.926 356.791,142.244 355.907,143.450 354.994 C 144.321 354.334,144.117 354.240,143.100 354.832 M149.107 357.490 C 149.826 357.579,150.906 357.577,151.507 357.486 C 152.108 357.395,151.520 357.322,150.200 357.324 C 148.880 357.326,148.388 357.401,149.107 357.490 M237.107 357.490 C 237.826 357.579,238.906 357.577,239.507 357.486 C 240.108 357.395,239.520 357.322,238.200 357.324 C 236.880 357.326,236.388 357.401,237.107 357.490 M156.307 357.890 C 157.026 357.979,158.106 357.977,158.707 357.886 C 159.308 357.795,158.720 357.722,157.400 357.724 C 156.080 357.726,155.588 357.801,156.307 357.890 M229.907 357.890 C 230.626 357.979,231.706 357.977,232.307 357.886 C 232.908 357.795,232.320 357.722,231.000 357.724 C 229.680 357.726,229.188 357.801,229.907 357.890 M163.700 358.287 C 164.305 358.378,165.295 358.378,165.900 358.287 C 166.505 358.195,166.010 358.120,164.800 358.120 C 163.590 358.120,163.095 358.195,163.700 358.287 M222.905 358.287 C 223.514 358.379,224.414 358.377,224.905 358.282 C 225.397 358.187,224.900 358.111,223.800 358.114 C 222.700 358.117,222.297 358.195,222.905 358.287 M169.705 358.687 C 170.314 358.779,171.214 358.777,171.705 358.682 C 172.197 358.587,171.700 358.511,170.600 358.514 C 169.500 358.517,169.097 358.595,169.705 358.687 M217.305 358.687 C 217.914 358.779,218.814 358.777,219.305 358.682 C 219.797 358.587,219.300 358.511,218.200 358.514 C 217.100 358.517,216.697 358.595,217.305 358.687 M175.107 359.090 C 175.826 359.179,176.906 359.177,177.507 359.086 C 178.108 358.995,177.520 358.922,176.200 358.924 C 174.880 358.926,174.388 359.001,175.107 359.090 M211.107 359.090 C 211.826 359.179,212.906 359.177,213.507 359.086 C 214.108 358.995,213.520 358.922,212.200 358.924 C 210.880 358.926,210.388 359.001,211.107 359.090 M183.500 359.493 C 184.435 359.577,185.965 359.577,186.900 359.493 C 187.835 359.409,187.070 359.340,185.200 359.340 C 183.330 359.340,182.565 359.409,183.500 359.493 M201.511 359.493 C 202.451 359.578,203.891 359.577,204.711 359.491 C 205.530 359.405,204.760 359.336,203.000 359.337 C 201.240 359.339,200.570 359.409,201.511 359.493 " stroke="none" fill="#7c7c7c" fill-rule="evenodd"></path></g></svg>